<?xml version="1.0" encoding="UTF-8" standalone="no"?>
<!-- Created with Inkscape (http://www.inkscape.org/) -->

<svg
   xmlns:dc="http://purl.org/dc/elements/1.1/"
   xmlns:cc="http://creativecommons.org/ns#"
   xmlns:rdf="http://www.w3.org/1999/02/22-rdf-syntax-ns#"
   xmlns:svg="http://www.w3.org/2000/svg"
   xmlns="http://www.w3.org/2000/svg"
   xmlns:sodipodi="http://sodipodi.sourceforge.net/DTD/sodipodi-0.dtd"
   xmlns:inkscape="http://www.inkscape.org/namespaces/inkscape"
   id="svg2"
   version="1.1"
   inkscape:version="0.48.5 r10040"
   width="627.99219"
   height="491.28906"
   xml:space="preserve"
   sodipodi:docname="cloud_incidence_multi.pdf"><metadata
     id="metadata8"><rdf:RDF><cc:Work
         rdf:about=""><dc:format>image/svg+xml</dc:format><dc:type
           rdf:resource="http://purl.org/dc/dcmitype/StillImage" /><dc:title></dc:title></cc:Work></rdf:RDF></metadata><defs
     id="defs6"><marker
       inkscape:stockid="TriangleInM"
       orient="auto"
       refY="0.0"
       refX="0.0"
       id="TriangleInM"
       style="overflow:visible"><path
         id="path4344"
         d="M 5.77,0.0 L -2.88,5.0 L -2.88,-5.0 L 5.77,0.0 z "
         style="fill-rule:evenodd;stroke:#000000;stroke-width:1.0pt"
         transform="scale(-0.4)" /></marker><marker
       inkscape:stockid="TriangleOutM"
       orient="auto"
       refY="0.0"
       refX="0.0"
       id="TriangleOutM"
       style="overflow:visible"><path
         id="path4353"
         d="M 5.77,0.0 L -2.88,5.0 L -2.88,-5.0 L 5.77,0.0 z "
         style="fill-rule:evenodd;stroke:#000000;stroke-width:1.0pt"
         transform="scale(0.4)" /></marker><clipPath
       clipPathUnits="userSpaceOnUse"
       id="clipPath20"><path
         d="m 41.934375,40.23125 446.399995,0 0,345.6 -446.399995,0 0,-345.6 z"
         id="path22" /></clipPath><clipPath
       clipPathUnits="userSpaceOnUse"
       id="clipPath30"><path
         d="m 41.934375,40.23125 446.399995,0 0,345.6 -446.399995,0 0,-345.6 z"
         id="path32" /></clipPath><clipPath
       clipPathUnits="userSpaceOnUse"
       id="clipPath40"><path
         d="m 41.934375,40.23125 446.399995,0 0,345.6 -446.399995,0 0,-345.6 z"
         id="path42" /></clipPath><clipPath
       clipPathUnits="userSpaceOnUse"
       id="clipPath50"><path
         d="m 41.934375,40.23125 446.399995,0 0,345.6 -446.399995,0 0,-345.6 z"
         id="path52" /></clipPath><clipPath
       clipPathUnits="userSpaceOnUse"
       id="clipPath70"><path
         d="m 41.934375,40.23125 446.399995,0 0,345.6 -446.399995,0 0,-345.6 z"
         id="path72" /></clipPath><clipPath
       clipPathUnits="userSpaceOnUse"
       id="clipPath90"><path
         d="m 41.934375,40.23125 446.399995,0 0,345.6 -446.399995,0 0,-345.6 z"
         id="path92" /></clipPath><clipPath
       clipPathUnits="userSpaceOnUse"
       id="clipPath110"><path
         d="m 41.934375,40.23125 446.399995,0 0,345.6 -446.399995,0 0,-345.6 z"
         id="path112" /></clipPath><clipPath
       clipPathUnits="userSpaceOnUse"
       id="clipPath130"><path
         d="m 41.934375,40.23125 446.399995,0 0,345.6 -446.399995,0 0,-345.6 z"
         id="path132" /></clipPath><clipPath
       clipPathUnits="userSpaceOnUse"
       id="clipPath150"><path
         d="m 41.934375,40.23125 446.399995,0 0,345.6 -446.399995,0 0,-345.6 z"
         id="path152" /></clipPath><clipPath
       clipPathUnits="userSpaceOnUse"
       id="clipPath170"><path
         d="m 41.934375,40.23125 446.399995,0 0,345.6 -446.399995,0 0,-345.6 z"
         id="path172" /></clipPath><clipPath
       clipPathUnits="userSpaceOnUse"
       id="clipPath190"><path
         d="m 41.934375,40.23125 446.399995,0 0,345.6 -446.399995,0 0,-345.6 z"
         id="path192" /></clipPath><clipPath
       clipPathUnits="userSpaceOnUse"
       id="clipPath210"><path
         d="m 41.934375,40.23125 446.399995,0 0,345.6 -446.399995,0 0,-345.6 z"
         id="path212" /></clipPath><clipPath
       clipPathUnits="userSpaceOnUse"
       id="clipPath230"><path
         d="m 41.934375,40.23125 446.399995,0 0,345.6 -446.399995,0 0,-345.6 z"
         id="path232" /></clipPath><clipPath
       clipPathUnits="userSpaceOnUse"
       id="clipPath254"><path
         d="m 41.934375,40.23125 446.399995,0 0,345.6 -446.399995,0 0,-345.6 z"
         id="path256" /></clipPath><clipPath
       clipPathUnits="userSpaceOnUse"
       id="clipPath274"><path
         d="m 41.934375,40.23125 446.399995,0 0,345.6 -446.399995,0 0,-345.6 z"
         id="path276" /></clipPath><clipPath
       clipPathUnits="userSpaceOnUse"
       id="clipPath294"><path
         d="m 41.934375,40.23125 446.399995,0 0,345.6 -446.399995,0 0,-345.6 z"
         id="path296" /></clipPath><clipPath
       clipPathUnits="userSpaceOnUse"
       id="clipPath314"><path
         d="m 41.934375,40.23125 446.399995,0 0,345.6 -446.399995,0 0,-345.6 z"
         id="path316" /></clipPath><clipPath
       clipPathUnits="userSpaceOnUse"
       id="clipPath334"><path
         d="m 41.934375,40.23125 446.399995,0 0,345.6 -446.399995,0 0,-345.6 z"
         id="path336" /></clipPath><clipPath
       clipPathUnits="userSpaceOnUse"
       id="clipPath354"><path
         d="m 41.934375,40.23125 446.399995,0 0,345.6 -446.399995,0 0,-345.6 z"
         id="path356" /></clipPath><clipPath
       clipPathUnits="userSpaceOnUse"
       id="clipPath374"><path
         d="m 41.934375,40.23125 446.399995,0 0,345.6 -446.399995,0 0,-345.6 z"
         id="path376" /></clipPath><clipPath
       clipPathUnits="userSpaceOnUse"
       id="clipPath394"><path
         d="m 41.934375,40.23125 446.399995,0 0,345.6 -446.399995,0 0,-345.6 z"
         id="path396" /></clipPath></defs><sodipodi:namedview
     pagecolor="#ffffff"
     bordercolor="#666666"
     borderopacity="1"
     objecttolerance="10"
     gridtolerance="10"
     guidetolerance="10"
     inkscape:pageopacity="0"
     inkscape:pageshadow="2"
     inkscape:window-width="1600"
     inkscape:window-height="847"
     id="namedview4"
     showgrid="false"
     inkscape:zoom="0.96073785"
     inkscape:cx="123.47159"
     inkscape:cy="260.55445"
     inkscape:window-x="0"
     inkscape:window-y="31"
     inkscape:window-maximized="1"
     inkscape:current-layer="g10" /><g
     id="g10"
     inkscape:groupmode="layer"
     inkscape:label="cloud_incidence_multi"
     transform="matrix(1.25,0,0,-1.25,0,491.28906)"><path
       d="m 0,0 502.39375,0 0,393.03125 L 0,393.03125 0,0 z"
       style="fill:#ffffff;fill-opacity:1;fill-rule:nonzero;stroke:none"
       id="path12" /><path
       d="m 41.934375,40.23125 446.399995,0 0,345.6 -446.399995,0 0,-345.6 z"
       style="fill:#ffffff;fill-opacity:1;fill-rule:nonzero;stroke:none"
       id="path14" /><g
       id="g16"><g
         id="g18"
         clip-path="url(#clipPath20)"><path
           d="m 41.934375,40.23125 0,0.20736 35.79426,0.1152 0,0.576 31.558765,0.1152 0,0.576 35.00193,0.1152 0,0.576 27.80481,0.1152 0,0.576 22.39905,0.1152 0,0.576 12.42447,0.1152 0,0.576 7.0566,0.1152 0,0.576 4.58561,0.1152 0,0.576 2.99952,0.1152 0,0.576 1.81583,0.1152 0,0.576 1.49592,0.1152 0,0.576 1.32662,0.1152 0.0892,0.39168 0.30408,0.18432 1.11031,0.13824 0.83549,0.36864 0.51799,0.18432 1.79233,0.13824 2.18513,0.55296 1.92758,0.13824 2.52566,0.39168 1.30551,0.16128 2.25708,0.13824 6.13477,0.55296 2.97794,0.16128 9.81296,0.59904 10.31559,0.4608 23.5132,0.8064 44.27915,1.47456 31.42688,1.33632 -0.62926,0.02304 0.46667,0.02304 0,0 12.26571,0.64512 -0.0935,0.06912 8.83742,0.62208 -0.72998,0.02304 0.55684,0.04608 0,0 3.38225,0.36864 1.61439,0.25344 -1.21679,0.02304 0.3837,0.09216 0.99472,0.39168 0.22878,0.18432 -1.62446,0.02304 0.0595,0.09216 0.3036,0.32256 12.26283,1.54368 0.94629,0.09216 -0.94005,0.02304 0.68537,0.06912 5.953,0.59904 -0.7741,0.02304 0.66762,0.06912 5.65564,0.59904 -1.38945,0.02304 0.79617,0.09216 5.45084,0.576 -1.69305,0.02304 0.80288,0.09216 4.57123,0.576 -1.24797,0.02304 0.7247,0.09216 4.14149,0.576 -1.35827,0.02304 0.5928,0.09216 3.21104,0.576 -1.31751,0.02304 0.56067,0.09216 3.46043,0.576 -1.21055,0.02304 0.55444,0.09216 3.50216,0.576 -1.23118,0.02304 0.48729,0.09216 3.25804,0.576 -1.11559,0.02304 0.45851,0.09216 2.52758,0.576 -1.1458,0.02304 0.40815,0.09216 2.33813,0.576 -1.42877,0.02304 0.38801,0.09216 2.56499,0.576 -1.57746,0.02304 0.38561,0.09216 2.26187,0.576 -1.37122,0.02304 0.30311,0.09216 0.88634,0.3456 -0.10312,0.2304 -1.41871,0.1152 -0.56259,0.576 -1.2729,0.1152 -0.0528,0.32256 0.0436,0.25344 -1.17267,0.02304 0.0355,0.09216 0.13093,0.43776 0.095,0.13824 -1.16164,0.02304 0.0369,0.09216 0.23742,0.576 -1.39617,0.02304 0.0437,0.09216 0.39568,0.576 -1.37314,0.02304 0.0278,0.09216 -0.3789,0.576 -1.51415,0.1152 -0.3012,0.576 -1.34676,0.1152 -0.26907,0.36864 -0.0355,0.20736 -1.27866,0.1152 -0.13909,0.2304 -0.0513,0.25344 -0.002,0.09216 -1.24077,0.1152 -0.0125,0.3456 0.13621,0.2304 -1.23597,0.1152 0.0839,0.4608 0.006,0.1152 -1.16979,0.1152 0.16259,0.576 -1.08585,0.04608 0.0106,0.06912 0.0168,0.576 -1.21151,0.06912 0.003,0.04608 -0.10551,0.41472 -0.0532,0.16128 -1.38082,0.1152 -0.0724,0.25344 -0.0528,0.32256 -1.25899,0.1152 -0.0619,0.43776 -0.0163,0.13824 -1.46427,0.1152 -0.0504,0.39168 0.008,0.18432 -1.36355,0.1152 -0.011,0.576 -1.18993,0.1152 -0.003,0.576 -1.43309,0.02304 0.0245,0.09216 0.13189,0.576 -1.3741,0.09216 0.008,0.02304 0.0403,0.576 -1.30264,0.1152 0.0297,0.576 -1.40432,0.1152 -0.16642,0.576 -1.32614,0.1152 -0.0566,0.576 -1.53189,0.1152 -0.21056,0.576 -1.38129,0.1152 -0.17314,0.55296 -0.007,0.02304 -1.56546,0.1152 -0.13238,0.576 -1.55923,0.1152 -0.16595,0.39168 -0.0585,0.18432 -1.47147,0.1152 -0.19856,0.48384 -0.0106,0.09216 -1.31799,0.1152 -0.1904,0.36864 -0.0599,0.20736 -1.25948,0.1152 -0.12278,0.576 -1.32758,0.1152 -0.27865,0.55296 -0.008,0.02304 -1.29352,0.1152 -0.12854,0.25344 -0.14485,0.32256 -1.43837,0.1152 -0.36067,0.576 -1.40384,0.1152 -0.16642,0.4608 -0.0389,0.1152 -1.41487,0.1152 -0.0753,0.3456 -0.0427,0.2304 -1.61918,0.1152 -0.0897,0.48384 -0.004,0.09216 -1.55443,0.1152 -0.0652,0.576 -1.5717,0.1152 -0.20432,0.55296 -0.003,0.02304 -1.50024,0.09216 0.004,0.02304 -0.2,0.576 -1.31319,0.09216 0.004,0.02304 -0.10935,0.576 -1.40336,0.1152 -0.18897,0.576 -1.3952,0.1152 -0.21151,0.39168 -0.059,0.18432 -1.40288,0.1152 -0.16355,0.50688 -0.006,0.0691 -1.51558,0.1152 -0.17459,0.36864 -0.008,0.20736 -1.47722,0.1152 -0.11271,0.576 -1.45276,0.1152 -0.24652,0.576 -1.48201,0.1152 -0.106,0.2304 -0.12854,0.25344 -0.0336,0.0922 -1.46427,0.1152 -0.12854,0.41472 -0.008,0.16128 -1.2446,0.1152 -0.0686,0.576 -1.22542,0.1152 -0.28921,0.576 -1.26715,0.1152 -0.11079,0.29952 -0.0432,0.27648 -1.28777,0.0922 4.8e-4,0.023 -0.0576,0.576 -1.20623,0.1152 -0.15396,0.3456 -0.0873,0.2304 -1.2211,0.1152 -0.13094,0.576 -1.01007,0.1152 -0.11223,0.2304 -0.11031,0.29952 -0.0149,0.0461 -1.19041,0.1152 -0.18273,0.576 -0.97362,0.1152 -0.0811,0.39168 -0.0619,0.18432 -0.89736,0.1152 -0.16307,0.576 -0.98513,0.1152 -0.24077,0.576 -1.12566,0.1152 -0.18322,0.43776 -0.0312,0.13824 -0.91895,0.1152 -0.0959,0.576 -0.89209,0.0691 0.004,0.0461 0.009,0.576 -0.91127,0.1152 -0.0254,0.43776 -0.048,0.13824 -0.71847,0.1152 -0.12997,0.576 -1.13429,0.1152 -0.14773,0.576 -0.8398,0.1152 -0.12614,0.576 -0.99905,0.1152 -0.20719,0.576 -1.02926,0.1152 -0.13717,0.576 -1.11511,0.1152 -0.1741,0.576 -0.96546,0.1152 -0.12183,0.41472 -0.0441,0.16128 -1.0235,0.1152 -0.10216,0.576 -0.95636,0.1152 -0.27194,0.576 -0.89257,0.1152 -0.12709,0.576 -1.0024,0.1152 -0.11895,0.576 -0.80863,0.1152 -0.11223,0.576 -0.98657,0.1152 -0.20144,0.576 -0.95875,0.1152 -0.23214,0.576 -0.58561,0.1152 -0.13477,0.576 -1.01727,0.1152 -0.16019,0.576 -0.847,0.1152 -0.11751,0.576 -0.79472,0.1152 -0.32183,0.43776 -0.0264,0.13824 -0.90407,0.1152 -0.17938,0.576 -0.61966,0.1152 -0.13765,0.576 -0.63597,0.1152 -0.0672,0.2304 -0.0906,0.3456 -0.66283,0.1152 -0.0878,0.576 -0.53717,0.1152 -0.14293,0.39168 -0.0494,0.18432 -0.29832,0.1152 -0.11271,0.576 -0.69592,0.1152 -0.0302,0.39168 -0.0427,0.18432 -0.55588,0.1152 -0.13429,0.4608 -0.0129,0.1152 -0.78849,0.0691 0.006,0.0461 -0.058,0.576 -0.53381,0.1152 -0.0499,0.50688 0.007,0.0691 -0.58561,0.1152 -0.11607,0.576 -0.49304,0.1152 -0.12854,0.41472 -0.0216,0.16128 -0.61295,0.1152 -0.13765,0.576 -0.60959,0.1152 -0.11176,0.576 -0.65515,0.1152 -0.0221,0.39168 -0.0374,0.18432 -0.54533,0.1152 -0.21678,0.576 -0.69305,0.1152 -0.20144,0.576 -0.69352,0.1152 -0.13765,0.576 -0.33717,0.1152 -0.11463,0.576 -0.4048,0.1152 -0.14005,0.576 -0.53237,0.1152 -0.13573,0.52992 -0.0144,0.0461 -0.52998,0.1152 -0.13765,0.576 -0.42302,0.1152 -0.10264,0.41472 -0.0489,0.16128 -0.35635,0.13824 -0.19857,0.55296 -0.33765,0.1152 -0.10167,0.55296 -0.001,0.023 -0.4307,0.1152 -0.12374,0.576 -0.30408,0.13824 -0.17649,0.50688 -9.6e-4,0.0461 -0.36691,0.1152 -0.0787,0.576 -0.66139,0.1152 -0.10408,0.576 -0.58417,0.1152 -0.21583,0.576 -0.33285,0.13824 -0.15396,0.4608 -0.12278,0.16128 -0.15587,0.62208 -0.412,0.1152 -0.0671,0.29952 -0.058,0.27648 -0.29832,0.1152 -0.18561,0.576 -0.27913,0.13824 -0.4873,1.22112 -9.5e-4,0.023 -0.27482,0.1152 -0.62926,1.2672 -0.23933,0.13824 -0.92038,1.93536 -0.48873,0.13824 -0.29065,0.55296 -0.31223,0.13824 -0.26907,0.55296 -0.39904,0.13824 -0.83453,1.24416 -0.49544,0.1152 -0.32806,0.576 -0.17794,0.13824 -0.22062,0.55296 -0.24413,0.13824 -0.49976,0.82944 -0.65659,1.10592 -0.38609,0.13824 -0.23789,0.55296 -0.25036,0.13824 -0.37602,0.55296 -0.37842,0.13824 -0.33381,0.55296 -0.39904,0.13824 -0.29977,0.55296 -0.50791,0.1152 -0.39616,0.576 -0.56211,0.1152 -0.31031,0.576 -0.39713,0.1152 -0.3223,0.576 -0.46283,0.13824 -0.24077,0.55296 -0.41391,0.13824 -0.35299,0.55296 -0.60672,0.1152 -0.32806,0.576 -0.3952,0.13824 -0.67626,1.24416 -0.53909,0.13824 -0.24988,0.55296 -0.56738,0.1152 -0.25708,0.576 -0.33909,0.13824 -0.24029,0.55296 -0.38273,0.13824 -0.35684,0.55296 -0.35635,0.13824 -0.30935,0.55296 -0.45036,0.13824 -0.3084,0.55296 -0.50887,0.13824 -0.23069,0.39168 -0.0959,0.16128 -0.53525,0.13824 -0.31511,0.55296 -0.43213,0.1152 -0.34293,0.55296 -0.009,0.023 -0.62254,0.1152 -0.26859,0.576 -0.71702,0.1152 -0.34389,0.576 -0.33094,0.13824 -0.31223,0.55296 -0.30359,0.13824 -0.37986,0.55296 -0.4801,0.13824 -0.30263,0.55296 -0.5602,0.1152 -0.38321,0.576 -0.49017,0.1152 -0.32518,0.576 -0.43021,0.13824 -0.31559,0.55296 -0.63501,0.1152 -0.35828,0.576 -0.56307,0.13824 -0.33717,0.55296 -0.64508,0.13824 -0.3319,0.55296 -0.69064,0.1152 -0.33957,0.576 -0.54676,0.1152 -0.32758,0.576 -0.6801,0.1152 -0.34532,0.576 -0.51703,0.1152 -0.38993,0.576 -0.6988,0.1152 -0.41583,0.576 -0.77026,0.1152 -0.33765,0.576 -0.69209,0.1152 -0.33765,0.576 -0.71702,0.1152 -0.3554,0.576 -0.77986,0.1152 -0.3199,0.576 -0.50983,0.1152 -0.27722,0.576 -0.83741,0.1152 -0.34677,0.576 -0.60095,0.1152 -0.3813,0.576 -0.6283,0.1152 -0.39232,0.576 -0.71655,0.1152 -0.36739,0.576 -0.43789,0.13824 -0.33573,0.55296 -0.7669,0.1152 -0.29113,0.576 -0.83933,0.1152 -0.23741,0.48384 -0.0331,0.0922 -0.8355,0.1152 -0.32518,0.576 -0.8964,0.1152 -0.31751,0.576 -1.01774,0.1152 -0.31991,0.576 -0.95156,0.1152 -0.30407,0.576 -0.75876,0.1152 -0.33909,0.576 -1.07673,0.1152 -0.29545,0.576 -0.98561,0.1152 -0.30456,0.576 -1.04412,0.1152 -0.27146,0.576 -0.9789,0.1152 -0.31607,0.576 -0.99137,0.1152 -0.29592,0.576 -0.98465,0.1152 -0.24605,0.576 -1.29976,0.1152 -0.32182,0.576 -0.71846,0.1152 -0.25036,0.576 -1.04461,0.1152 -0.31703,0.576 -1.19952,0.1152 -0.30216,0.576 -1.31558,0.1152 -0.2988,0.576 -1.17554,0.1152 -0.34389,0.576 -1.36163,0.1152 -0.3295,0.576 -1.39712,0.1152 -0.26427,0.576 -1.32614,0.1152 -0.28201,0.576 -1.28585,0.1152 -0.26092,0.576 -1.57506,0.1152 -0.25323,0.576 -1.35876,0.1152 -0.23837,0.576 -1.38849,0.1152 -0.21199,0.576 -1.33141,0.1152 -0.22926,0.576 -1.56307,0.1152 -0.24412,0.576 -1.56308,0.1152 -0.28393,0.576 -1.50024,0.1152 -0.29544,0.576 -1.65324,0.1152 -0.3223,0.576 -1.64077,0.1152 -0.25468,0.576 -1.32038,0.1152 -0.23118,0.576 -1.73909,0.1152 -0.25371,0.576 -1.58034,0.1152 -0.21295,0.576 -1.83789,0.1152 -0.23405,0.576 -1.26139,0.1152 -0.25036,0.576 -1.93382,0.1152 -0.25899,0.576 -1.70168,0.1152 -0.21487,0.576 -1.68969,0.1152 -0.24364,0.576 -1.93765,0.1152 -0.15396,0.576 -1.75875,0.1152 -0.1837,0.576 -1.69304,0.1152 -0.18514,0.576 -2.01726,0.1152 -0.153,0.576 -1.17794,0.1152 -0.19137,0.576 -1.17745,0.1152 -0.19569,0.576 -4.5458,0.1152 -0.1813,0.576 -5.25755,0.1152 -0.24125,0.576 -5.30312,0.1152 -0.20767,0.576 -4.84797,0.1152 -0.16499,0.576 -16.95396,0.1152 -0.58465,1.01376 -0.13573,0.25344 4.63021,0.023 -0.0542,0.0922 -0.58561,1.01376 -0.14149,0.25344 -0.9813,0.1152 -0.8211,1.2672 -2.3554,0.1152 -0.59089,0.94464 -0.18369,0.32256 -2.44125,0.1152 -0.60096,1.2672 -2.51079,0.1152 -0.57122,1.2672 -2.45324,0.1152 -0.53909,1.0368 -0.10503,0.2304 -2.94293,0.1152 -0.42686,0.82944 -0.18513,0.43776 -2.92279,0.1152 -0.54532,1.2672 -2.95108,0.1152 -0.50839,1.2672 -2.97363,0.1152 -0.54292,1.2672 -2.84509,0.1152 -0.52757,1.2672 -2.62686,0.1152 -0.45948,1.2672 -2.65707,0.1152 -0.37458,1.2672 -2.75924,0.1152 -0.28681,1.05984 -0.0643,0.20736 -2.81726,0.1152 -0.34916,1.2672 -2.76307,0.1152 -0.32566,1.2672 -2.71271,0.1152 -0.26236,1.2672 -2.39664,0.1152 -0.2307,1.2672 -2.51942,0.1152 -0.19185,1.2672 -2.69736,0.1152 -0.16883,1.2672 -2.558749,0.1152 -0.195204,1.2672 -2.419666,0.1152 -0.117026,1.2672 -2.045085,0.1152 -0.102158,1.2672 -2.287291,0.1152 -0.08249,1.2672 -2.027819,0.1152 -0.113189,1.2672 -2.165949,0.1152 -0.07866,1.2672 -1.768346,0.1152 -0.05899,1.2672 -1.888729,0.1152 -0.05947,1.2672 -1.92614,0.1152 -0.04556,0.94464 -0.0096,0.32256 -1.818226,0.1152 -0.05132,1.2672 -1.608154,0.1152 -0.03837,1.2672 -1.570744,0.1152 -0.04748,1.2672 -1.555876,0.1152 -0.03357,1.2672 -1.522782,0.1152 -0.02686,1.2672 -1.359233,0.1152 -0.0211,1.2672 -1.160192,0.1152 -0.01151,1.2672 -1.156835,0.1152 -0.01007,1.2672 -1.120864,0.1152 -0.01103,1.2672 -1.044605,0.1152 -0.0038,1.2672 -0.91271,0.1152 -0.0034,1.2672 -0.926619,0.1152 0,1.2672 -0.940049,0.1152 -0.0058,1.2672 -0.894005,0.1152 4.79e-4,1.2672 -0.847962,0.1152 0,1.2672 -0.75012,0.1152 0,1.2672 -0.722782,0.1152 -0.0014,1.2672 -0.764029,0.1152 -4.8e-4,1.2672 -0.682973,0.1152 0,1.2672 -0.65084,0.1152 0,1.2672 -0.56259,0.1152 0,1.2672 -0.610072,0.1152 0,1.2672 -0.63789,0.1152 0,1.2672 -0.518466,0.1152 0,1.2672 -0.506954,0.1152 0,1.2672 -0.27578,0.1152 0,1.2672 -0.353477,0.1152 0,1.2672 -0.291128,0.1152 0,1.2672 -0.215827,0.1152 0,1.2672 -0.332374,0.1152 0,1.2672 -0.307434,0.1152 0,1.2672 -0.407195,0.1152 0,1.2672 -0.325659,0.1152 4.79e-4,1.2672 -0.244125,0.1152 0,1.2672 -0.22494,0.1152 4.8e-4,1.2672 -0.284413,0.1152 0,1.2672 -0.368825,0.1152 -4.79e-4,1.2672 -0.269545,0.1152 0,1.2672 -0.186091,0.1152 0,1.2672 -0.151559,0.1152 0,1.2672 -0.134293,0.1152 -0.094,2.6496 -0.203358,0.1152 -4.79e-4,1.2672 -0.13765,0.1152 -0.07434,2.6496 -0.178897,0.1152 0,1.2672 -0.111751,0.1152 -0.07242,2.6496 -0.119904,0.1152 0,1.2672 -0.175539,0.1152 -0.03981,2.6496 -0.129016,0.1152 -0.05516,2.6496 -0.110312,0.1152 -0.06043,4.032 -0.107434,0.1152 -0.07002,2.6496 -0.09544,0.1152 -0.06619,5.4144 -0.131415,0.1152 -0.08393,5.4144 -0.09257,0.1152 -0.07002,4.032 -0.09017,0.1152 -0.06811,2.6496 -0.05612,0.13824 -0.03789,3.50208 -0.07098,4.65408 -0.07002,0.13824 -0.07242,2.62656 -0.08681,0.1152 -0.102638,2.6496 -0.05755,0.13824 -0.04077,2.62656 -0.151559,0.1152 -4.8e-4,0.3456 0,0"
           style="fill:none;stroke:#257ee3;stroke-opacity:1;stroke-width:1.7;stroke-linecap:square;stroke-linejoin:round;stroke-miterlimit:10;stroke-dasharray:none"
           id="path24" /></g></g><g
       id="g26"><g
         id="g28"
         clip-path="url(#clipPath30)"><path
           d="m 41.934375,40.23125 0,1.58976 0.379798,0.1152 0,1.2672 55.229324,0.1152 0,1.2672 17.785413,0.1152 0,1.2672 20.36754,0.1152 0,1.2672 9.76415,0.1152 0,1.2672 -3.99451,0.1152 0,1.2672 14.1827,0.1152 -6.3e-4,1.2672 12.26539,0.1152 0,1.2672 4.38379,0.1152 0,1.2672 5.2287,0.1152 0,1.2672 8.52492,0.1152 -0.003,1.2672 28.20174,0.1152 -0.009,1.2672 41.66845,0.06912 -6.3e-4,0.04608 -0.005,1.2672 41.34679,0.04608 -0.003,0.06912 -0.0202,1.2672 34.51043,0.1152 -0.008,1.2672 18.22019,0.04608 -0.002,0.06912 -0.008,1.2672 21.19285,0.1152 -0.0202,1.2672 19.59656,0.02304 -6.3e-4,0.09216 -0.0183,1.2672 15.78658,0.06912 -0.003,0.04608 -0.0158,1.2672 10.62044,0.04608 -6.4e-4,0.06912 -0.031,1.2672 1.32139,0.06912 -0.001,0.04608 -0.0518,1.2672 0.16304,0.1152 -0.0683,1.2672 -0.64332,0.1152 -0.10111,1.2672 -1.27905,0.1152 -0.0961,1.2672 -1.40228,0.1152 -0.0809,1.2672 -1.34604,0.1152 -0.0758,1.2672 -1.37511,0.1152 -0.0784,1.2672 -1.94702,0.1152 -0.13207,1.2672 -1.90658,0.1152 -0.0733,0.96768 -0.0227,0.29952 -1.46548,0.1152 -0.10111,1.2672 -2.45636,0.09216 0.001,0.02304 -0.0702,1.2672 -2.15808,0.1152 -0.0809,1.2672 -2.49934,0.1152 -0.0581,1.2672 -2.74137,0.04608 0.004,0.06912 -0.0436,1.2672 -3.48454,0.06912 0.004,0.04608 0.0329,1.2672 -3.21596,0.1152 0.0202,1.08288 0.002,0.18432 -3.15846,0.02304 0.004,0.09216 -0.055,1.2672 -2.54105,0.06912 0.001,0.04608 -0.031,0.94464 -0.0171,0.32256 -2.26868,0.1152 -0.019,1.2672 -3.09968,0.1152 -0.002,1.2672 -2.70662,0.06912 0.002,0.04608 -0.0152,0.6912 -0.0202,0.576 -2.90062,0.09216 6.3e-4,0.02304 -0.0253,1.2672 -3.33918,0.1152 -0.0139,1.2672 -3.0289,0.1152 0.0196,1.2672 -2.71483,0.0461 0.004,0.0691 0.019,1.2672 -3.08452,0.023 0.003,0.0922 0.0487,1.2672 -2.81025,0.0461 0.007,0.0691 -0.003,1.2672 -3.02195,0.0922 0.003,0.023 0.009,1.2672 -2.46711,0.1152 0.0126,1.2672 -2.67691,0.023 0.012,0.0922 0.0385,1.2672 -1.94322,0.0691 0.004,0.0461 -0.0177,1.2672 -1.86423,0.023 0.004,0.0922 0.001,0.8064 -0.0177,0.4608 -2.20169,0.1152 0.0171,1.2672 -2.39317,0.1152 0.0297,0.6912 -0.004,0.576 -2.38117,0.1152 -0.0145,1.2672 -1.75491,0.023 0.0114,0.0922 0.0145,1.12896 -6.3e-4,0.13824 -2.01843,0.1152 0.0209,1.2672 -2.2453,0.0691 0.001,0.0461 -6.4e-4,1.2672 -1.71951,0.1152 0.0259,1.2672 -2.01527,0.1152 0.0632,1.2672 -2.15682,0.0461 0.005,0.0691 0.009,1.2672 -1.85159,0.1152 -0.005,1.2672 -1.90594,0.0922 6.3e-4,0.023 0.0398,1.2672 -1.89078,0.0461 0.001,0.0691 0.0228,1.2672 -2.53915,0.0461 0.003,0.0691 0.0367,1.2672 -1.70562,0.0691 0.006,0.0461 -0.019,1.2672 -0.7716,0.023 0.009,0.0922 0.0221,1.2672 -0.79183,0.0691 0.003,0.0461 0.0177,1.2672 -1.55458,0.1152 0.0348,0.9216 0.009,0.3456 -2.27689,0.023 0.005,0.0922 0.008,1.2672 -1.86487,0.023 0.005,0.0922 0.0145,1.2672 -1.53436,0.023 0.004,0.0922 -6.4e-4,1.2672 -1.54257,0.023 0.003,0.0922 0.031,1.2672 -1.45852,0.1152 0.0278,1.2672 -1.43072,0.0461 0.004,0.0691 0.0152,1.29024 -1.3334,0.0691 0.001,0.0461 -0.009,1.2672 -2.19158,0.1152 0.004,1.0368 0.008,0.2304 -1.32834,0.023 0.003,0.0922 0.008,1.08288 0.005,0.18432 -0.76908,0.0922 0.003,0.023 0.0177,1.2672 -0.84554,0.1152 0.0221,1.2672 -0.80699,0.1152 -0.007,1.2672 -1.00542,0.023 0.006,0.0922 0.007,1.2672 -1.17984,0.0461 0.002,0.0691 -0.002,1.2672 -0.81331,0.1152 0.0107,1.2672 -1.35299,0.023 0.003,0.0922 -0.003,1.2672 -2.17072,0.023 0.004,0.0922 0.019,1.2672 -2.44815,0.0922 0.001,0.023 0.0228,1.2672 -2.26172,0.0691 0.001,0.0461 0.007,1.2672 -2.03485,0.0922 6.3e-4,0.023 0.0303,1.2672 -1.49012,0.0922 6.3e-4,0.023 0.001,1.2672 -1.26009,0.1152 0.012,1.2672 -1.33404,0.1152 0.0114,1.2672 -1.34667,0.0461 0.006,0.0691 0.0329,0.94464 0.0139,0.32256 -1.05914,0.1152 -0.0196,1.2672 -1.18679,0.1152 0.019,1.2672 -1.85412,0.1152 -0.006,1.2672 -1.94007,0.0691 6.4e-4,0.0461 -0.009,1.24416 6.3e-4,0.023 -1.71762,0.023 0.004,0.0922 0.024,1.2672 -1.30244,0.0691 0.002,0.0461 -0.001,0.96768 0.002,0.29952 -1.33087,0.0461 0.005,0.0691 6.3e-4,1.2672 -1.96534,0.023 0.005,0.0922 0.007,1.2672 -2.33251,0.0691 6.4e-4,0.0461 0.0221,1.2672 -1.91352,0.1152 -0.002,1.2672 -1.46484,0.0922 0.002,0.023 0.0158,1.2672 -1.33213,0.023 0.003,0.0922 0.0468,1.2672 -1.61146,0.0461 0.003,0.0691 0.0392,1.2672 -2.53599,0.0461 0.002,0.0691 0.0158,1.2672 -2.74263,0.023 0.005,0.0922 0.009,1.2672 -2.06709,0.0461 0.002,0.0691 0.0139,1.2672 -1.54889,0.0691 0.002,0.0461 0.031,1.2672 -1.98367,0.0461 0.003,0.0691 0,1.2672 -2.50503,0.023 0.001,0.0922 0.0139,1.2672 -2.82858,0.1152 -0.003,1.2672 -2.10753,0.023 0.003,0.0922 0.0228,1.2672 -2.14861,0.0461 0.001,0.0691 0.0423,1.2672 -2.24024,0.023 0.003,0.0922 0.0303,1.2672 -2.43677,0.1152 -0.007,1.2672 -2.83047,0.1152 0.006,1.2672 -3.24566,0.0461 0.001,0.0691 0.0171,1.2672 -3.38089,0.0922 6.3e-4,0.023 0.0107,1.2672 -2.26804,0.0922 6.3e-4,0.023 -0.004,1.2672 -2.24593,0.1152 -0.004,1.2672 -3.05545,0.023 0.001,0.0922 0.005,1.2672 -3.28358,0.0691 6.3e-4,0.0461 0.0114,1.2672 -3.52941,0.0691 0.001,0.0461 -0.0171,1.2672 -2.90505,0.023 0.002,0.0922 -0.0329,1.2672 -3.38912,0.0461 6.4e-4,0.0691 0.001,1.2672 -3.66717,0.023 6.3e-4,0.0922 -0.004,1.2672 -2.85006,0.023 0.002,0.0922 0.0107,1.2672 -3.32149,0.1152 0.009,1.2672 -2.65416,0.1152 0,1.2672 -1.75112,0.1152 0.0613,1.2672 -0.91695,0.1152 0.0284,1.2672 -2.65037,0.1152 0.0272,1.2672 -2.20927,0.0461 0.001,0.0691 0.036,1.2672 -0.3798,0.1152 0.072,1.24416 -2.28763,0.1152 0.0107,1.2672 -3.34171,0.023 0.002,0.0922 0.0171,1.2672 -3.38089,0.0691 6.3e-4,0.0461 0.004,1.29024 -3.08452,0.1152 0.005,1.2672 -2.86586,0.0691 6.3e-4,0.0461 0.0101,1.2672 -2.98593,0.1152 0.006,1.2672 -3.34424,0.023 0.001,0.0922 0.003,1.2672 -3.77902,0.0461 0.001,0.0691 0.009,1.2672 -3.79798,0.023 0.003,0.0922 0.0209,1.2672 -3.48454,0.023 0.002,0.0922 0.001,1.2672 -3.95028,0.1152 0.001,1.2672 -4.186,0.023 0.003,0.0922 0.006,1.2672 -4.67322,0.1152 0.009,1.2672 -4.17525,0.1152 0.004,1.2672 -3.72404,0.1152 0.004,1.2672 -3.92247,0.1152 0.004,1.2672 -3.55784,0.1152 0.004,1.2672 -3.14391,0.1152 0,1.2672 -3.44789,0.1152 0.002,1.2672 -3.04091,0.1152 0,1.2672 -2.96635,0.1152 6.4e-4,1.2672 -3.47127,0.1152 -0.004,1.2672 -2.97961,0.1152 6.3e-4,1.2672 -3.391642,0.1152 0,1.2672 -2.7736,0.1152 0,1.2672 -2.333767,0.1152 0.0032,1.2672 -2.039913,0.1152 0.0025,1.2672 -1.936907,0.1152 0,1.2672 -1.588074,0.1152 0,1.2672 -1.618407,0.1152 -0.0013,1.2672 -2.408968,0.1152 -6.32e-4,1.2672 -2.358412,0.1152 0,1.2672 -2.044969,0.1152 0,1.2672 -2.101212,0.1152 0.0013,1.2672 -2.053184,0.1152 0,1.2672 -2.045601,0.1152 6.32e-4,1.2672 -1.977351,0.1152 6.32e-4,1.2672 -1.775129,0.1152 0,1.2672 -1.352358,0.1152 0,1.2672 -0.98836,0.1152 0,1.2672 -1.16088,0.1152 0,1.2672 -0.778554,0.1152 0,1.2672 -0.74127,0.1152 0,1.2672 -0.813943,0.1152 0,1.2672 -0.879665,0.1152 0,1.2672 -0.805728,0.1152 0,1.2672 -0.738742,0.1152 0,1.2672 -0.866394,0.1152 0,1.2672 -0.817735,0.1152 0,1.2672 -0.736846,0.1152 0,1.2672 -0.886616,0.1152 0,1.2672 -0.729263,0.1152 0,1.2672 -0.690082,0.1152 -0.0013,1.2672 -0.533992,0.1152 -6.32e-4,1.2672 -0.381694,0.1152 -6.32e-4,1.2672 -0.294485,0.1152 0,1.2672 -0.486597,0.1152 0,1.2672 -0.40002,0.1152 0.0013,1.2672 -0.376006,0.1152 6.32e-4,1.2672 -0.294486,0.1152 6.32e-4,1.2672 -0.160514,0.1152 0,1.2672 -0.254673,0.1152 0,1.2672 -1.624726,0.1152 0,1.2672 -0.594027,0.1152 0,1.2672 -0.49418,0.1152 0,1.2672 -0.44868,0.1152 0,1.2672 -0.607929,0.1152 0,1.2672 -0.681867,0.1152 0,1.2672 -0.45184,0.1152 0,1.2672 -0.454999,0.1152 0,1.2672 -0.391173,0.1152 0,1.2672 -0.410131,0.1152 0,1.2672 -0.274263,0.1152 0,1.2672 -0.240139,0.1152 0,1.2672 -0.214229,0.1152 0,1.2672 -0.204749,0.1152 0,1.2672 -0.291326,0.1152 0,1.2672 -0.29259,0.1152 0,1.2672 -0.221812,0.1152 0,1.2672 -0.260361,0.1152 0,1.2672 -0.179472,0.1152 0,1.2672 -0.197798,0.1152 0,1.2672 -0.121333,0.1152 0,1.2672 -0.123229,0.1152 0,1.2672 -0.113118,0.1152 -0.105535,2.6496 -0.07015,0.13824 -0.07331,2.62656 -0.136499,0.1152 0,1.2672 -0.163042,0.1152 0,1.2672 -0.113118,0.1152 -0.08974,2.6496 -0.08089,0.13824 -0.09669,2.62656 -0.104902,0.1152 -0.09985,2.6496 -0.127021,0.1152 0,1.2672 -0.139028,0.1152 0,1.2672 -0.123229,0.1152 -0.109958,2.6496 -0.114381,0.1152 0,1.2672 -0.146611,0.1152 -0.103639,2.6496 -0.142819,0.1152 0,1.2672 -0.137764,0.1152 0,1.2672 -0.133972,0.1152 0,1.2672 -0.141555,0.1152 0,1.2672 -0.158618,0.1152 0,1.2672 -0.156722,0.1152 0,1.2672 -0.158618,0.1152 0,1.2672 -0.211069,0.1152 0,1.2672 -0.162409,0.1152 0,1.2672 -0.224972,0.1152 0,1.01376 0,0"
           style="fill:none;stroke:#17c7ff;stroke-opacity:1;stroke-width:1.7;stroke-linecap:square;stroke-linejoin:round;stroke-miterlimit:10;stroke-dasharray:none"
           id="path34" /></g></g><g
       id="g36"><g
         id="g38"
         clip-path="url(#clipPath40)"><path
           d="m 41.934375,40.23125 0,0.20736 2.32603,0.1152 0,0.576 18.493406,0.1152 0,0.576 36.029667,0.1152 0,0.576 28.457142,0.1152 0,0.576 23.14505,0.1152 0,0.576 17.3426,0.1152 0,0.576 13.29304,0.1152 0,0.576 5.69797,0.1152 0,0.576 2.34382,0.1152 0,0.576 0.81231,0.1152 0,0.576 -0.77279,0.1152 0,0.576 -1.50896,0.1152 0.0168,0.576 -1.93767,0.02304 0.007,0.09216 0.0312,0.576 -1.75208,0.02304 0.007,0.09216 0.0608,0.576 -1.66951,0.02304 0.0139,0.09216 0.16594,0.576 -0.87439,0.02304 0.0391,0.09216 0.41277,0.576 -0.97969,0.02304 0.10593,0.09216 0.54582,0.3456 0.56692,0.2304 -0.77176,0.02304 0.2874,0.09216 1.58799,0.36864 1.1175,0.20736 -0.66582,0.02304 0.54395,0.09216 4.09197,0.55296 0.20235,0.02304 0,0 0,0 -0.52119,0.02304 0.44629,0.04608 0,0 10.95502,1.01376 16.5907,1.22112 32.84705,2.0736 8.03641,0.66816 8.80341,0.87552 2.05064,0.13824 5.47161,0.36864 9.87497,0.85248 4.62185,0.62208 7.05299,0.96768 5.92474,0.8064 -0.48085,0.02304 0.33291,0.04608 0,0 11.71436,1.82016 0.0513,0.16128 0.0484,0.02304 -0.70803,0.02304 0.30229,0.09216 1.90953,0.41472 0.73099,0.16128 -0.66499,0.02304 0.36436,0.09216 2.75619,0.52992 0.27973,0.04608 -0.6203,0.02304 0.50133,0.09216 4.60385,0.94464 1.48579,0.32256 -0.64203,0.02304 0.35381,0.09216 2.30099,0.576 -0.72354,0.02304 0.36353,0.09216 2.38707,0.576 -0.6979,0.02304 0.33374,0.09216 2.1903,0.576 -0.66561,0.02304 0.34036,0.09216 1.38254,0.3456 -0.0654,0.1152 -0.0569,0.1152 -0.89611,0.1152 -0.0755,0.50688 -0.002,0.06912 -0.55099,0.06912 0.008,0.04608 0.0927,0.3456 0.16118,0.2304 -0.57582,0.02304 0.0288,0.09216 0.0476,0.18432 0.13676,0.39168 -0.5185,0.02304 0.0445,0.09216 0.17691,0.18432 0.62216,0.39168 -0.57396,0.02304 0.15932,0.09216 1.24826,0.576 -0.63334,0.02304 0.19698,0.09216 1.34406,0.576 -0.62072,0.02304 0.17566,0.09216 1.11501,0.576 -0.78417,0.02304 0.16511,0.09216 0.22801,0.27648 0.008,0.29952 -0.78375,0.09216 0.007,0.02304 0.12952,0.43776 0.0913,0.13824 -0.56444,0.02304 0.0803,0.09216 0.58802,0.55296 0.0329,0.02304 -0.75127,0.02304 0.11545,0.09216 0.69624,0.576 -0.63044,0.02304 0.13614,0.09216 0.90314,0.576 -0.58451,0.02304 0.1287,0.09216 0.38401,0.2304 0.54934,0.3456 -0.70286,0.02304 0.10201,0.09216 0.26918,0.20736 0.58037,0.36864 -0.62051,0.02304 0.0964,0.09216 0.7461,0.576 -0.50051,0.02304 0.10739,0.09216 0.36746,0.43776 0.10159,0.13824 -0.61037,0.02304 0.0573,0.09216 0.45809,0.576 -0.47795,0.02304 0.0637,0.09216 0.49161,0.576 -0.56072,0.02304 0.0747,0.09216 0.63023,0.576 -0.47381,0.02304 0.0765,0.09216 0.63396,0.576 -0.37864,0.02304 0.0828,0.09216 0.40906,0.41472 0.15621,0.16128 -0.65734,0.02304 0.0697,0.09216 0.36374,0.41472 0.19263,0.16128 -0.57168,0.02304 0.053,0.09216 0.52265,0.576 -0.61223,0.02304 0.0637,0.09216 0.41154,0.576 -0.63934,0.02304 0.0761,0.09216 0.47795,0.576 -0.5754,0.02304 0.0852,0.09216 0.39499,0.576 -0.61245,0.02304 0.0745,0.09216 0.43057,0.576 -0.69996,0.02304 0.0606,0.09216 0.53092,0.576 -0.74382,0.02304 0.0724,0.09216 0.38692,0.4608 0.0923,0.1152 -0.69831,0.02304 0.0577,0.09216 0.3956,0.576 -0.71362,0.02304 0.0406,0.09216 0.18187,0.48384 0.0465,0.09216 -0.81086,0.09216 0.007,0.02304 0.30664,0.576 -0.82721,0.02304 0.0633,0.09216 0.24167,0.4608 0.0503,0.1152 -0.7883,0.02304 0.0252,0.09216 0.0917,0.32256 0.0608,0.25344 -0.85328,0.02304 0.0395,0.09216 0.26959,0.576 -0.68464,0.02304 0.0213,0.09216 0.37429,0.576 -0.88762,0.02304 0.0416,0.09216 0.13387,0.576 -0.85142,0.02304 0.0621,0.09216 0.18683,0.39168 0.091,0.18432 -0.86528,0.02304 0.0165,0.09216 0.0948,0.576 -0.78562,0.1152 0.15973,0.576 -0.90252,0.02304 0.036,0.09216 0.14649,0.41472 0.0726,0.16128 -0.88183,0.02304 0.0265,0.09216 0.0596,0.576 -1.04032,0.1152 0.0213,0.576 -0.7759,0.023 0.0329,0.0922 0.18352,0.576 -0.81976,0.1152 0.053,0.576 -0.79969,0.0922 0.0106,0.023 0.11815,0.41472 0.0103,0.16128 -0.91617,0.023 0.003,0.0922 -2e-4,0.41472 -0.0108,0.16128 -0.83611,0.023 0.009,0.0922 -0.001,0.576 -0.90087,0.0922 0.003,0.023 0.0503,0.576 -0.83052,0.0922 0.005,0.023 0.0592,0.576 -0.81397,0.1152 -0.055,0.50688 0.0186,0.0691 -0.74155,0.023 0.003,0.0922 0.11235,0.576 -0.84045,0.023 0.0331,0.0922 -0.0346,0.4608 -0.001,0.1152 -0.72334,0.1152 -0.0637,0.32256 -0.0418,0.25344 -0.83818,0.0461 0.007,0.0691 -0.0722,0.576 -0.92508,0.0922 0.001,0.023 -0.002,0.576 -0.71092,0.0691 0.009,0.0461 -0.0341,0.41472 -0.0343,0.16128 -0.73017,0.1152 -0.0604,0.576 -0.74837,0.1152 -0.0325,0.576 -0.72872,0.023 0.01,0.0922 -0.0339,0.3456 0.0608,0.2304 -0.75955,0.1152 -0.0991,0.576 -0.71755,0.1152 -0.0809,0.576 -0.63851,0.1152 -0.14193,0.576 -0.74507,0.1152 -0.0902,0.576 -0.75562,0.0691 0.007,0.0461 -0.10221,0.29952 -0.0896,0.27648 -0.8059,0.1152 -0.0569,0.50688 -0.009,0.0691 -0.79141,0.1152 -0.0288,0.3456 -0.0399,0.2304 -0.64389,0.1152 -0.14193,0.576 -0.61389,0.1152 -0.16532,0.48384 0.005,0.0922 -0.51478,0.1152 -0.12415,0.576 -0.64885,0.0922 0.002,0.023 -0.0807,0.20736 -0.06,0.20736 -0.0339,0.16128 -0.71403,0.0691 0.006,0.0461 -0.19593,0.576 -0.70079,0.1152 -0.11504,0.576 -0.62755,0.1152 -0.0492,0.39168 -0.0292,0.18432 -0.6681,0.1152 -0.11401,0.576 -0.84438,0.1152 -0.18187,0.52992 -0.0201,0.0461 -0.53216,0.0691 0.004,0.0461 -0.15332,0.576 -0.4674,0.1152 -0.22325,0.576 -0.39602,0.1152 -0.0573,0.576 -0.35215,0.1152 -0.12208,0.36864 -0.0372,0.20736 -0.44236,0.1152 -0.11008,0.576 -0.37098,0.023 0.007,0.0922 -0.0954,0.576 -0.48229,0.1152 -0.1047,0.36864 -0.0306,0.20736 -0.56589,0.1152 -0.091,0.52992 -0.0143,0.0461 -0.37367,0.1152 -0.25512,0.576 -0.41691,0.1152 -0.21498,0.576 -0.39539,0.1152 -0.007,0.576 -0.41112,0.0922 0.001,0.023 -0.11317,0.576 -0.28553,0.1152 -0.0714,0.4608 0.001,0.1152 -0.44485,0.1152 -0.0372,0.576 -0.3985,0.1152 -0.11566,0.576 -0.28594,0.13824 -0.15435,0.55296 -0.37885,0.13824 -0.24353,0.55296 -0.42788,0.1152 -0.19925,0.576 -0.35401,0.1152 -0.11607,0.576 -0.31222,0.0922 0.005,0.023 -0.0768,0.576 -0.27042,0.1152 -0.0579,0.576 -0.28697,0.13824 -0.1467,0.55296 -0.46512,0.1152 -0.0124,0.25344 -0.0759,0.27648 -0.0215,0.0461 -0.5154,0.13824 -0.20215,0.55296 -0.29049,0.13824 -0.19222,0.55296 -0.28511,0.13824 -0.27063,0.55296 -0.29215,0.13824 -0.24415,0.55296 -0.35733,0.1152 -0.12683,0.4608 -0.0246,0.1152 -0.20256,0.13824 -0.0542,0.41472 -0.0364,0.13824 -0.30746,0.13824 -0.11752,0.55296 -0.29236,0.13824 -0.11731,0.48384 -0.0253,0.0691 -0.37367,0.1152 -0.16407,0.39168 -0.006,0.18432 -0.18932,0.1152 -0.15724,0.576 -0.37409,0.13824 -0.14214,0.32256 -0.5452,0.87552 -0.001,0.0461 -0.29733,0.13824 -0.13986,0.55296 -0.26815,0.1152 -0.1976,0.576 -0.126,0.13824 -0.0801,0.27648 -0.10532,0.43776 -0.19594,0.52992 -0.19904,0.13824 -0.43285,1.0368 -0.14028,0.4608 -0.61844,1.12896 -0.0255,0.1152 -0.36395,0.87552 -0.17276,0.39168 0.11504,0.023 -0.0385,0.0922 -0.71403,1.9584 0.10242,0.023 -0.0395,0.0922 -2.03636,4.1472 -0.59858,1.2672 -0.2398,0.13824 -1.76201,2.62656 -0.26028,0.13824 -0.2427,0.48384 -0.0528,0.0691 -0.26464,0.13824 -0.87583,1.24416 -0.1798,0.13824 -0.14752,0.43776 -0.32174,0.55296 -0.28511,0.41472 -2.48887,3.29472 -0.42415,0.1152 -0.36064,0.576 -0.3956,0.1152 -0.34719,0.576 -0.27519,0.13824 -0.33663,0.55296 -0.3536,0.13824 -0.37222,0.55296 -0.31885,0.13824 -0.32256,0.55296 -0.28905,0.13824 -0.15745,0.27648 -0.2036,0.27648 -0.61099,0.1152 -0.39477,0.576 -0.47361,0.13824 -0.3236,0.55296 -0.59299,0.1152 -0.40222,0.576 -0.55927,0.1152 -0.39767,0.576 -0.46616,0.13824 -0.3116,0.55296 -0.49802,0.13824 -0.39064,0.55296 -0.48457,0.1152 -0.4074,0.576 -0.47029,0.13824 -0.32857,0.55296 -0.48188,0.13824 -0.41485,0.55296 -0.3176,0.13824 -0.34842,0.55296 -0.57934,0.1152 -0.37926,0.576 -0.46926,0.13824 -0.40326,0.55296 -0.52388,0.13824 -0.35712,0.55296 -0.32463,0.13824 -0.34305,0.55296 -0.43181,0.13824 -0.36892,0.55296 -0.48084,0.13824 -0.35981,0.55296 -0.28864,0.13824 -1.09184,1.24416 -0.6383,0.13824 -0.37905,0.55296 -0.75748,0.1152 -0.40202,0.576 -0.44526,0.13824 -0.36601,0.55296 -0.43719,0.13824 -0.30436,0.55296 -0.57375,0.1152 -0.41009,0.576 -0.64823,0.1152 -0.34574,0.576 -0.69148,0.1152 -0.37325,0.576 -0.70183,0.1152 -0.3238,0.576 -0.73969,0.1152 -0.33726,0.576 -0.58367,0.1152 -0.35319,0.576 -0.5154,0.1152 -0.32257,0.576 -0.41195,0.13824 -0.31718,0.55296 -0.40533,0.1152 -0.35464,0.576 -0.70989,0.1152 -0.37822,0.576 -0.97122,0.1152 -0.36663,0.576 -0.7701,0.1152 -0.22491,0.4608 -0.042,0.1152 -0.85804,0.1152 -0.2938,0.576 -0.89052,0.1152 -0.32733,0.576 -0.92011,0.1152 -0.26049,0.576 -0.56444,0.1152 -0.26691,0.576 -0.70016,0.1152 -0.3534,0.576 -0.90893,0.1152 -0.33995,0.576 -0.83569,0.1152 -0.3565,0.576 -0.7672,0.1152 -0.27539,0.576 -0.78066,0.1152 -0.29401,0.576 -1.08791,0.1152 -0.31491,0.576 -1.04363,0.1152 -0.24332,0.576 -0.71796,0.1152 -0.2458,0.576 -0.9646,0.1152 -0.33291,0.576 -1.01963,0.1152 -0.32091,0.576 -1.15825,0.1152 -0.29919,0.576 -1.22757,0.1152 -0.22387,0.576 -0.93852,0.1152 -0.29857,0.576 -1.05128,0.1152 -0.27126,0.576 -1.25074,0.1152 -0.24891,0.576 -1.04507,0.1152 -0.22636,0.576 -1.22219,0.1152 -0.27084,0.576 -1.29522,0.1152 -0.26112,0.50688 -0.0325,0.0691 -1.25199,0.1152 -0.20276,0.39168 -0.0782,0.18432 -1.18847,0.1152 -0.22884,0.576 -1.38461,0.1152 -0.21559,0.576 -1.19343,0.1152 -0.2516,0.576 -1.42247,0.1152 -0.21022,0.576 -1.30868,0.1152 -0.20276,0.576 -1.04425,0.1152 -0.21063,0.576 -1.40158,0.1152 -0.20442,0.576 -1.55614,0.1152 -0.27808,0.576 -1.52903,0.1152 -0.20194,0.576 -1.50689,0.1152 -0.20753,0.576 -1.50937,0.1152 -0.19366,0.576 -1.53276,0.1152 -0.16759,0.50688 -0.024,0.0691 -1.47917,0.1152 -0.16614,0.576 -1.36558,0.1152 -0.16759,0.576 -1.32854,0.1152 -0.18249,0.576 -1.03412,0.1152 -0.21559,0.576 -8.08193,0.1152 -0.1767,0.576 -9.09162,0.1152 -0.14194,0.576 -9.75704,0.1152 -0.1798,0.576 -9.22673,0.1152 -0.13222,0.576 -34.36201,0.1152 -0.97638,1.2672 2.82839,0.023 -0.0803,0.0922 -1.10922,1.2672 -0.32008,0.13824 -0.89673,1.24416 -1.25943,0.1152 -0.86279,1.2672 -1.11853,0.1152 -0.69872,1.2672 -1.00577,0.1152 -0.78293,1.2672 -1.119979,0.1152 -0.530091,1.05984 -0.09104,0.20736 -1.172325,0.1152 -0.612854,1.2672 -1.193637,0.1152 -0.529677,1.2672 -1.232949,0.1152 -0.573128,1.2672 -1.212258,0.1152 -0.309738,0.78336 -0.173386,0.48384 -1.287158,0.1152 -0.457882,1.2672 -1.294193,0.1152 -0.317186,1.0368 -0.08111,0.2304 -1.209361,0.1152 -0.3925,1.2672 -1.236673,0.1152 -0.348635,1.2672 -1.298952,0.1152 -0.279322,1.2672 -1.149359,0.1152 -0.301875,1.2672 -1.148118,0.1152 -0.278495,1.2672 -1.161152,0.1152 -0.229665,1.2672 -1.073632,0.1152 -0.211664,1.2672 -1.040734,0.1152 -0.204836,1.2672 -1.070115,0.1152 -0.166558,1.24416 -0.0023,0.023 -1.036803,0.1152 -0.104694,0.96768 -0.02152,0.29952 -0.94742,0.1152 -0.09807,1.2672 -1.020871,0.1152 -0.12704,1.2672 -1.035147,0.1152 -0.0958,1.2672 -0.890521,0.1152 -0.04449,0.64512 -0.01924,0.62208 -0.879141,0.1152 -0.04221,1.2672 -0.934385,0.1152 -0.05255,1.2672 -0.815207,0.1152 -0.03042,1.2672 -0.908107,0.1152 -0.03021,1.2672 -0.767205,0.1152 -0.0238,1.2672 -0.863209,0.1152 -0.02276,1.2672 -0.786861,0.1152 -0.01138,1.2672 -0.830725,0.1152 -0.0068,1.2672 -0.739273,0.1152 -0.0062,1.2672 -0.709685,0.1152 -0.001,1.2672 -0.63913,0.1152 -0.0029,1.2672 -0.636648,0.1152 -0.0027,1.2672 -0.601888,0.1152 -6.21e-4,1.2672 -0.591335,0.1152 0,1.2672 -0.550368,0.1152 -6.21e-4,1.2672 -0.436363,0.1152 -2.07e-4,1.2672 -0.453123,0.1152 -8.28e-4,1.2672 -0.452708,0.1152 0,1.2672 -0.457261,0.1152 -2.07e-4,1.2672 -0.45602,0.1152 -6.2e-4,1.2672 -0.442364,0.1152 0,1.2672 -0.371602,0.1152 6.21e-4,1.2672 -0.380913,0.1152 6.21e-4,1.2672 -0.352981,0.1152 -2.07e-4,1.2672 -0.308495,0.1152 0,1.2672 -0.302703,0.1152 2.07e-4,1.2672 -0.244355,0.1152 -2.07e-4,1.2672 -0.207319,0.1152 0,1.2672 -0.205664,0.1152 4.14e-4,1.2672 -0.214354,0.1152 -6.21e-4,1.2672 -0.183525,0.1152 -2.07e-4,1.2672 -0.205457,0.1152 0,1.2672 -0.154558,0.1152 4.14e-4,1.2672 -0.17856,0.1152 -2.07e-4,1.2672 -0.135523,0.1152 -2.06e-4,1.2672 -0.146489,0.1152 0,1.2672 -0.134075,0.1152 -0.103453,2.6496 -0.122488,0.1152 -0.105108,2.6496 -0.115039,0.1152 -0.07469,4.032 -0.07138,0.13824 -0.100142,4.00896 -0.03083,0.16128 -0.09125,3.98592 -0.05028,0.13824 -0.02607,2.62656 -0.09021,0.1152 -0.08524,12.3264 -0.03062,0.16128 -0.104901,6.75072 -0.02048,0.18432 -0.07862,8.11008 -0.06476,0.13824 -0.08028,8.15616 -0.05462,0.13824 -0.104901,4.00896 -0.07345,0.13824 -0.05669,2.62656 -0.06642,0.13824 -0.10428,2.62656 -0.07573,0.13824 -0.08876,2.62656 -0.08297,0.13824 0,0.32256 0,0"
           style="fill:none;stroke:#db244d;stroke-opacity:1;stroke-width:1.7;stroke-linecap:square;stroke-linejoin:round;stroke-miterlimit:10;stroke-dasharray:none"
           id="path44" /></g></g><g
       id="g46"><g
         id="g48"
         clip-path="url(#clipPath50)"><path
           d="m 41.934375,40.23125 0.0158,2.97216 40.872881,0.1152 0,1.2672 30.018142,0.1152 0,1.2672 6.74917,0.1152 0,1.2672 -0.47924,0.1152 0,1.2672 -7.21397,0.1152 -0.002,1.2672 -2.04584,0.1152 -2.7e-4,1.2672 11.45957,0.1152 -8.2e-4,1.2672 1.07128,0.1152 -0.002,1.2672 1.28079,0.1152 -0.004,1.2672 0.18472,0.1152 -0.006,1.2672 6.94588,0.1152 -0.009,1.2672 27.5699,0.1152 -0.0125,1.2672 24.15881,0.1152 -0.009,1.2672 23.60055,0.1152 -0.004,1.2672 22.93168,0.09216 -2.7e-4,0.02304 -0.008,1.2672 18.87843,0.1152 -5.4e-4,1.2672 18.39346,0.02304 -8.2e-4,0.09216 -0.005,1.2672 15.79291,0.02304 -8.1e-4,0.09216 -0.006,1.2672 10.42263,0.02304 -2.7e-4,0.09216 -0.0183,1.2672 3.61325,0.02304 -0.001,0.09216 -0.0272,1.2672 4.35923,0.02304 -8.2e-4,0.09216 -0.0401,1.2672 3.60317,0.02304 -0.001,0.09216 -0.0341,1.2672 3.1697,0.02304 -0.005,0.09216 -0.0401,1.2672 1.73688,0.02304 -0.004,0.09216 -0.0564,1.2672 2.06709,0.02304 -0.003,0.09216 -0.0531,1.2672 1.12849,0.02304 -0.003,0.09216 -0.0477,1.2672 1.03232,0.02304 -0.004,0.09216 -0.0556,1.2672 0.91626,0.06912 -0.002,0.04608 -0.0556,1.2672 0.96366,0.04608 -0.004,0.06912 -0.055,1.2672 0.19017,0.1152 -0.0398,1.2672 0.60403,0.09216 -0.002,0.02304 -0.0602,1.2672 0.28362,0.1152 -0.0741,1.2672 0.33457,0.1152 -0.0913,1.70496 -0.0403,0.94464 -0.625,0.1152 -0.0322,1.2672 -0.50404,0.09216 0.001,0.02304 -0.0204,1.2672 -0.27926,0.1152 -0.0221,1.2672 -0.79229,0.1152 -0.0387,1.2672 -1.29659,0.1152 -0.0169,1.2672 -1.20587,0.1152 -0.001,1.2672 -1.63334,0.09216 0.001,0.02304 -0.0158,1.2672 -1.9246,0.1152 -0.0256,1.2672 -1.69438,0.1152 0.007,1.2672 -1.29414,0.0922 5.4e-4,0.023 -0.004,1.2672 -1.50475,0.1152 0.0101,0.99072 -0.007,0.27648 -1.44481,0.023 0.005,0.0922 0,1.2672 -1.53445,0.0922 8.2e-4,0.023 0.008,1.2672 -1.9908,0.023 0.002,0.0922 0.0155,1.2672 -1.46116,0.0461 0.002,0.0691 0.0155,1.2672 -1.50966,0.023 0.007,0.0922 0.0207,1.2672 -1.64669,0.023 0.007,0.0922 0.0161,1.2672 -1.91696,0.0691 0.001,0.0461 0.001,1.2672 -2.20904,0.0922 8.2e-4,0.023 0.033,1.2672 -2.14147,0.0922 5.5e-4,0.023 -0.0153,1.2672 -1.65978,0.1152 0.0136,1.2672 -1.59412,0.023 0.007,0.0922 0.0106,1.2672 -1.46961,0.0922 5.5e-4,0.023 0.01,1.2672 -1.37452,0.1152 -0.004,1.2672 -1.20206,0.1152 0.0117,1.2672 -1.28406,0.1152 0.008,1.2672 -1.16173,0.023 0.002,0.0922 -0.004,1.2672 -1.19197,0.1152 0.004,1.2672 -1.06419,0.0922 0.001,0.023 0.0103,1.2672 -1.75023,0.1152 0.007,1.2672 -1.48813,0.023 0.002,0.0922 0.0101,1.2672 -0.73753,0.0922 0.002,0.023 0.0245,1.2672 -0.52256,0.0461 0.004,0.0691 0.005,1.2672 -1.25219,0.0461 0.002,0.0691 0.0177,1.2672 -1.8998,0.1152 0.002,1.2672 -1.60338,0.0922 0.002,0.023 0.0207,1.2672 -0.96202,0.0922 0.002,0.023 -0.0117,1.2672 -1.00208,0.0691 0.001,0.0461 0.0234,1.2672 -1.06638,0.0691 0.002,0.0461 0.0114,1.2672 -0.93124,0.0691 0.004,0.0461 -5.4e-4,1.29024 -1.04785,0.023 0.003,0.0922 -0.0125,1.2672 -1.45707,0.0922 8.2e-4,0.023 0.002,1.2672 -1.08872,0.0691 0.002,0.0461 -0.0166,1.2672 -0.69584,0.1152 0.003,1.2672 -0.52828,0.1152 0.004,1.2672 -0.26291,0.1152 -0.003,1.2672 -0.65225,0.0922 8.2e-4,0.023 0.0313,1.2672 -0.78548,0.1152 0.0226,1.2672 -0.43184,0.1152 0.0262,1.2672 -0.68386,0.023 0.004,0.0922 0.004,1.2672 -1.62381,0.1152 0.0134,1.2672 -1.94884,0.0922 0.001,0.023 0.0207,1.2672 -1.66686,0.0691 0.001,0.0461 0.0248,1.2672 -1.36825,0.1152 0.0221,1.2672 -1.08871,0.0922 8.1e-4,0.023 0.0232,1.2672 -0.88519,0.0461 0.003,0.0691 0.008,1.2672 -0.88928,0.0461 0.003,0.0691 0.0199,1.2672 -0.89555,0.1152 0.0188,1.2672 -0.62419,0.1152 0.003,1.2672 -1.00943,0.1152 0.0144,1.2672 -1.60501,0.1152 0.0136,1.2672 -1.73715,0.0922 5.4e-4,0.023 0.005,1.2672 -1.41865,0.0922 8.2e-4,0.023 0.001,1.2672 -1.19743,0.1152 0.01,1.2672 -1.09525,0.0922 5.4e-4,0.023 0.006,1.2672 -1.96464,0.0922 0.001,0.023 -0.005,1.2672 -2.04393,0.1152 0.001,1.2672 -1.69219,0.1152 0.004,1.2672 -1.43991,0.1152 0.001,1.2672 -1.22413,0.1152 0.003,1.2672 -1.40285,0.023 0.004,0.0922 0.0207,1.2672 -2.13984,0.0922 5.5e-4,0.023 0.0144,1.2672 -2.20686,0.1152 0.005,1.2672 -1.73824,0.0461 0.001,0.0691 0.0136,1.2672 -1.35653,0.023 0.004,0.0922 0.008,1.2672 -1.89626,0.1152 -0.001,1.2672 -2.23955,0.0461 0.002,0.0691 -0.002,1.2672 -2.28178,0.023 0.001,0.0922 0.0229,1.2672 -1.5309,0.1152 0.0164,1.2672 -1.80472,0.0922 5.4e-4,0.023 0.004,1.2672 -1.8949,0.0691 0.001,0.0461 0.007,1.2672 -1.99979,0.0691 8.2e-4,0.0461 0.003,1.2672 -2.37305,0.1152 -0.001,1.2672 -2.95637,0.0691 8.2e-4,0.0461 0.01,1.2672 -2.62043,0.0922 8.1e-4,0.023 -0.007,1.2672 -1.72625,0.0691 0.002,0.0461 0.008,1.2672 -1.56496,0.1152 0.004,1.2672 -2.28805,0.1152 0.0109,1.2672 -2.66812,0.0922 2.8e-4,0.023 -0.008,1.2672 -2.69182,0.1152 0.007,1.2672 -2.18097,0.023 0.001,0.0922 -0.004,1.2672 -2.77464,0.1152 0.004,1.2672 -3.03593,0.1152 -0.007,1.2672 -2.2954,0.1152 0.0114,1.2672 -2.37578,0.0922 2.8e-4,0.023 -0.002,1.2672 -1.90662,0.1152 0.0112,1.2672 -1.10452,0.0922 5.4e-4,0.023 0.0256,0.89856 0.002,0.36864 -0.31522,0.1152 0.036,1.2672 -1.80199,0.1152 0.0365,1.2672 -1.28598,0.0922 8.2e-4,0.023 0.0242,1.2672 0.53509,0.1152 0.0665,1.24416 -1.61809,0.0461 0.001,0.0691 0.0174,1.2672 -2.47059,0.023 0.001,0.0922 0.0123,1.2672 -2.79671,0.1152 0.007,1.29024 -2.56267,0.1152 0.003,1.2672 -1.71181,0.1152 0.007,1.2672 -1.91669,0.0922 5.4e-4,0.023 0.008,1.2672 -2.22456,0.1152 0.008,1.2672 -2.77927,0.0922 5.4e-4,0.023 0.003,1.2672 -2.59537,0.1152 0.002,1.2672 -2.51854,0.0922 2.7e-4,0.023 0.004,1.2672 -3.10676,0.023 0.001,0.0922 0.008,1.2672 -3.46531,0.1152 0.005,1.2672 -3.76773,0.1152 0.002,1.2672 -3.50373,0.1152 0.002,1.2672 -2.93457,0.0691 5.4e-4,0.0461 0.007,1.2672 -3.19913,0.0922 0.001,0.023 0.004,1.2672 -2.90188,0.1152 2.7e-4,1.2672 -2.3943,0.1152 0.002,1.2672 -2.58284,0.1152 0.006,1.2672 -2.86264,0.0922 0.001,0.023 -2.7e-4,1.2672 -2.63434,0.1152 2.8e-4,1.2672 -2.96073,0.1152 2.7e-4,1.2672 -2.92014,0.1152 -5.4e-4,1.2672 -2.78527,0.1152 -5.4e-4,1.2672 -2.32837,0.1152 8.1e-4,1.2672 -1.991888,0.1152 0,1.2672 -1.856212,0.1152 2.73e-4,1.2672 -1.725162,0.1152 2.72e-4,1.2672 -1.526,0.1152 0.0011,1.2672 -1.710994,0.1152 0,1.2672 -2.295403,0.1152 2.72e-4,1.2672 -2.146099,0.1152 0,1.2672 -1.86275,0.1152 -0.0014,1.2672 -1.862478,0.1152 0,1.2672 -1.625717,0.1152 -0.0016,1.2672 -1.6249,0.1152 0,1.2672 -1.773386,0.1152 2.73e-4,1.2672 -1.775838,0.1152 0.0011,1.2672 -1.252459,0.1152 0,1.2672 -1.057111,0.1152 0.0016,1.2672 -1.083266,0.1152 -0.0011,1.2672 -0.997717,0.1152 0,1.2672 -0.788747,0.1152 0,1.2672 -0.745154,0.1152 0,1.2672 -1.003711,0.1152 0,1.2672 -1.240199,0.1152 0,1.2672 -1.107242,0.1152 0,1.2672 -0.872389,0.1152 0,1.2672 -0.769948,0.1152 0,1.2672 -0.886011,0.1152 0,1.2672 -0.907536,0.1152 0.0011,1.2672 -0.71464,0.1152 0,1.2672 -0.615468,0.1152 0,1.2672 -0.556345,0.1152 0,1.2672 -0.544903,0.1152 0,1.2672 -0.439192,0.1152 0,1.2672 -0.753328,0.1152 -0.0016,1.2672 -0.621462,0.1152 0,1.2672 -0.598848,0.1152 0,1.2672 -0.376255,0.1152 0,1.2672 -0.17219,0.1152 0.0063,2.6496 -2.568127,0.1152 0,1.2672 -0.533187,0.1152 0,1.2672 -0.502128,0.1152 0,1.2672 -0.639171,0.1152 0,1.2672 -0.689029,0.1152 0,1.2672 -0.709464,0.1152 0,1.2672 -0.658787,0.1152 0,1.2672 -0.494772,0.1152 0,1.2672 -0.396144,0.1152 0,1.2672 -0.389333,0.1152 0,1.2672 -0.274903,0.1152 0,1.2672 -0.236216,0.1152 0,1.2672 -0.22232,0.1152 0,1.2672 -0.265368,0.1152 0,1.2672 -0.293157,0.1152 0,1.2672 -0.271362,0.1152 0,1.2672 -0.260191,0.1152 0,1.2672 -0.255832,0.1152 0,1.2672 -0.261825,0.1152 0,1.2672 -0.193441,0.1152 0,1.2672 -0.177911,0.1152 0,1.2672 -0.235125,0.1152 0,1.2672 -0.280353,0.1152 0,1.2672 -0.29125,0.1152 0,1.2672 -0.234036,0.1152 0,1.2672 -0.278445,0.1152 0,1.2672 -0.28008,0.1152 0,1.2672 -0.276811,0.1152 0,1.2672 -0.192078,0.1152 0,1.2672 -0.173007,0.1152 0,1.2672 -0.198889,0.1152 0,1.2672 -0.208698,0.1152 0,1.2672 -0.199434,0.1152 0,1.2672 -0.173007,0.1152 0,1.2672 -0.204066,0.1152 0,1.2672 -0.171644,0.1152 0,1.2672 -0.183632,0.1152 0,1.2672 -0.158567,0.1152 0,1.2672 -0.174914,0.1152 0,1.2672 -0.146034,0.1152 0,1.2672 -0.143582,0.1152 0,1.2672 -0.238122,0.1152 0,1.2672 -0.148759,0.1152 0,1.2672 -0.146578,0.1152 0,1.2672 -0.166468,0.1152 0,1.2672 -0.226952,0.1152 0,1.2672 -0.259374,0.1152 0,1.2672 -0.153118,0.1152 0,1.2672 -0.203793,0.1152 0,1.2672 -0.191534,0.1152 0,1.2672 -0.197527,0.1152 0,1.01376 0,0"
           style="fill:none;stroke:#ff8616;stroke-opacity:1;stroke-width:1.7;stroke-linecap:square;stroke-linejoin:round;stroke-miterlimit:10;stroke-dasharray:none"
           id="path54" /></g></g><g
       id="g56"><path
         d="m 41.934375,385.83125 446.399995,0"
         style="fill:none;stroke:#000000;stroke-opacity:1;stroke-width:1;stroke-linecap:square;stroke-linejoin:miter;stroke-miterlimit:10;stroke-dasharray:none"
         id="path58" /><path
         d="m 488.33437,40.23125 0,345.6"
         style="fill:none;stroke:#000000;stroke-opacity:1;stroke-width:1;stroke-linecap:square;stroke-linejoin:miter;stroke-miterlimit:10;stroke-dasharray:none"
         id="path60" /><path
         d="m 41.934375,40.23125 446.399995,0"
         style="fill:none;stroke:#000000;stroke-opacity:1;stroke-width:1;stroke-linecap:square;stroke-linejoin:miter;stroke-miterlimit:10;stroke-dasharray:none"
         id="path62" /><path
         d="m 41.934375,40.23125 0,345.6"
         style="fill:none;stroke:#000000;stroke-opacity:1;stroke-width:1;stroke-linecap:square;stroke-linejoin:miter;stroke-miterlimit:10;stroke-dasharray:none"
         id="path64" /></g><g
       id="g66"><g
         id="g68"
         clip-path="url(#clipPath70)"><path
           d="m 41.934375,40.23125 0,345.6"
           style="fill:none;stroke:#000000;stroke-opacity:1;stroke-width:0.5;stroke-linecap:butt;stroke-linejoin:round;stroke-miterlimit:10;stroke-dasharray:1,3;stroke-dashoffset:0"
           id="path74" /></g></g><g
       id="g76"><path
         d="m 41.934375,40.23125 0,4"
         style="fill:#000000;fill-opacity:1;fill-rule:nonzero;stroke:#000000;stroke-opacity:1;stroke-width:0.5;stroke-linecap:butt;stroke-linejoin:round;stroke-miterlimit:10;stroke-dasharray:none"
         id="path78" /><path
         d="m 41.934375,385.83125 0,-4"
         style="fill:#000000;fill-opacity:1;fill-rule:nonzero;stroke:#000000;stroke-opacity:1;stroke-width:0.5;stroke-linecap:butt;stroke-linejoin:round;stroke-miterlimit:10;stroke-dasharray:none"
         id="path80" /><text
         transform="matrix(1,0,0,-1,38.504687,27.10625)"
         id="text82"><tspan
           style="fill:#000000;fill-opacity:1;fill-rule:nonzero;stroke:none;font-family:Open Sans;font-variant:normal;font-weight:normal;font-size:12;writing-mode:lr;-inkscape-font-specification:OpenSans"
           x="0"
           y="0"
           id="tspan84">0</tspan></text>
</g><g
       id="g86"><g
         id="g88"
         clip-path="url(#clipPath90)"><path
           d="m 97.734375,40.23125 0,345.6"
           style="fill:none;stroke:#000000;stroke-opacity:1;stroke-width:0.5;stroke-linecap:butt;stroke-linejoin:round;stroke-miterlimit:10;stroke-dasharray:1,3;stroke-dashoffset:0"
           id="path94" /></g></g><g
       id="g96"><path
         d="m 97.734375,40.23125 0,4"
         style="fill:#000000;fill-opacity:1;fill-rule:nonzero;stroke:#000000;stroke-opacity:1;stroke-width:0.5;stroke-linecap:butt;stroke-linejoin:round;stroke-miterlimit:10;stroke-dasharray:none"
         id="path98" /><path
         d="m 97.734375,385.83125 0,-4"
         style="fill:#000000;fill-opacity:1;fill-rule:nonzero;stroke:#000000;stroke-opacity:1;stroke-width:0.5;stroke-linecap:butt;stroke-linejoin:round;stroke-miterlimit:10;stroke-dasharray:none"
         id="path100" /><text
         transform="matrix(1,0,0,-1,94.304687,27.10625)"
         id="text102"><tspan
           style="fill:#000000;fill-opacity:1;fill-rule:nonzero;stroke:none;font-family:Open Sans;font-variant:normal;font-weight:normal;font-size:12;writing-mode:lr;-inkscape-font-specification:OpenSans"
           x="0"
           y="0"
           id="tspan104">5</tspan></text>
</g><g
       id="g106"><g
         id="g108"
         clip-path="url(#clipPath110)"><path
           d="m 153.53437,40.23125 0,345.6"
           style="fill:none;stroke:#000000;stroke-opacity:1;stroke-width:0.5;stroke-linecap:butt;stroke-linejoin:round;stroke-miterlimit:10;stroke-dasharray:1,3;stroke-dashoffset:0"
           id="path114" /></g></g><g
       id="g116"><path
         d="m 153.53437,40.23125 0,4"
         style="fill:#000000;fill-opacity:1;fill-rule:nonzero;stroke:#000000;stroke-opacity:1;stroke-width:0.5;stroke-linecap:butt;stroke-linejoin:round;stroke-miterlimit:10;stroke-dasharray:none"
         id="path118" /><path
         d="m 153.53437,385.83125 0,-4"
         style="fill:#000000;fill-opacity:1;fill-rule:nonzero;stroke:#000000;stroke-opacity:1;stroke-width:0.5;stroke-linecap:butt;stroke-linejoin:round;stroke-miterlimit:10;stroke-dasharray:none"
         id="path120" /><text
         transform="matrix(1,0,0,-1,146.675,27.10625)"
         id="text122"><tspan
           style="fill:#000000;fill-opacity:1;fill-rule:nonzero;stroke:none;font-family:Open Sans;font-variant:normal;font-weight:normal;font-size:12;writing-mode:lr;-inkscape-font-specification:OpenSans"
           x="0 6.864"
           y="0"
           sodipodi:role="line"
           id="tspan124">10</tspan></text>
</g><g
       id="g126"><g
         id="g128"
         clip-path="url(#clipPath130)"><path
           d="m 209.33437,40.23125 0,345.6"
           style="fill:none;stroke:#000000;stroke-opacity:1;stroke-width:0.5;stroke-linecap:butt;stroke-linejoin:round;stroke-miterlimit:10;stroke-dasharray:1,3;stroke-dashoffset:0"
           id="path134" /></g></g><g
       id="g136"><path
         d="m 209.33437,40.23125 0,4"
         style="fill:#000000;fill-opacity:1;fill-rule:nonzero;stroke:#000000;stroke-opacity:1;stroke-width:0.5;stroke-linecap:butt;stroke-linejoin:round;stroke-miterlimit:10;stroke-dasharray:none"
         id="path138" /><path
         d="m 209.33437,385.83125 0,-4"
         style="fill:#000000;fill-opacity:1;fill-rule:nonzero;stroke:#000000;stroke-opacity:1;stroke-width:0.5;stroke-linecap:butt;stroke-linejoin:round;stroke-miterlimit:10;stroke-dasharray:none"
         id="path140" /><text
         transform="matrix(1,0,0,-1,202.475,27.10625)"
         id="text142"><tspan
           style="fill:#000000;fill-opacity:1;fill-rule:nonzero;stroke:none;font-family:Open Sans;font-variant:normal;font-weight:normal;font-size:12;writing-mode:lr;-inkscape-font-specification:OpenSans"
           x="0 6.864"
           y="0"
           sodipodi:role="line"
           id="tspan144">15</tspan></text>
</g><g
       id="g146"><g
         id="g148"
         clip-path="url(#clipPath150)"><path
           d="m 265.13437,40.23125 0,345.6"
           style="fill:none;stroke:#000000;stroke-opacity:1;stroke-width:0.5;stroke-linecap:butt;stroke-linejoin:round;stroke-miterlimit:10;stroke-dasharray:1,3;stroke-dashoffset:0"
           id="path154" /></g></g><g
       id="g156"><path
         d="m 265.13437,40.23125 0,4"
         style="fill:#000000;fill-opacity:1;fill-rule:nonzero;stroke:#000000;stroke-opacity:1;stroke-width:0.5;stroke-linecap:butt;stroke-linejoin:round;stroke-miterlimit:10;stroke-dasharray:none"
         id="path158" /><path
         d="m 265.13437,385.83125 0,-4"
         style="fill:#000000;fill-opacity:1;fill-rule:nonzero;stroke:#000000;stroke-opacity:1;stroke-width:0.5;stroke-linecap:butt;stroke-linejoin:round;stroke-miterlimit:10;stroke-dasharray:none"
         id="path160" /><text
         transform="matrix(1,0,0,-1,258.275,27.10625)"
         id="text162"><tspan
           style="fill:#000000;fill-opacity:1;fill-rule:nonzero;stroke:none;font-family:Open Sans;font-variant:normal;font-weight:normal;font-size:12;writing-mode:lr;-inkscape-font-specification:OpenSans"
           x="0 6.864"
           y="0"
           sodipodi:role="line"
           id="tspan164">20</tspan></text>
</g><g
       id="g166"><g
         id="g168"
         clip-path="url(#clipPath170)"><path
           d="m 320.93437,40.23125 0,345.6"
           style="fill:none;stroke:#000000;stroke-opacity:1;stroke-width:0.5;stroke-linecap:butt;stroke-linejoin:round;stroke-miterlimit:10;stroke-dasharray:1,3;stroke-dashoffset:0"
           id="path174" /></g></g><g
       id="g176"><path
         d="m 320.93437,40.23125 0,4"
         style="fill:#000000;fill-opacity:1;fill-rule:nonzero;stroke:#000000;stroke-opacity:1;stroke-width:0.5;stroke-linecap:butt;stroke-linejoin:round;stroke-miterlimit:10;stroke-dasharray:none"
         id="path178" /><path
         d="m 320.93437,385.83125 0,-4"
         style="fill:#000000;fill-opacity:1;fill-rule:nonzero;stroke:#000000;stroke-opacity:1;stroke-width:0.5;stroke-linecap:butt;stroke-linejoin:round;stroke-miterlimit:10;stroke-dasharray:none"
         id="path180" /><text
         transform="matrix(1,0,0,-1,314.075,27.10625)"
         id="text182"><tspan
           style="fill:#000000;fill-opacity:1;fill-rule:nonzero;stroke:none;font-family:Open Sans;font-variant:normal;font-weight:normal;font-size:12;writing-mode:lr;-inkscape-font-specification:OpenSans"
           x="0 6.864"
           y="0"
           sodipodi:role="line"
           id="tspan184">25</tspan></text>
</g><g
       id="g186"><g
         id="g188"
         clip-path="url(#clipPath190)"><path
           d="m 376.73437,40.23125 0,345.6"
           style="fill:none;stroke:#000000;stroke-opacity:1;stroke-width:0.5;stroke-linecap:butt;stroke-linejoin:round;stroke-miterlimit:10;stroke-dasharray:1,3;stroke-dashoffset:0"
           id="path194" /></g></g><g
       id="g196"><path
         d="m 376.73437,40.23125 0,4"
         style="fill:#000000;fill-opacity:1;fill-rule:nonzero;stroke:#000000;stroke-opacity:1;stroke-width:0.5;stroke-linecap:butt;stroke-linejoin:round;stroke-miterlimit:10;stroke-dasharray:none"
         id="path198" /><path
         d="m 376.73437,385.83125 0,-4"
         style="fill:#000000;fill-opacity:1;fill-rule:nonzero;stroke:#000000;stroke-opacity:1;stroke-width:0.5;stroke-linecap:butt;stroke-linejoin:round;stroke-miterlimit:10;stroke-dasharray:none"
         id="path200" /><text
         transform="matrix(1,0,0,-1,369.875,27.10625)"
         id="text202"><tspan
           style="fill:#000000;fill-opacity:1;fill-rule:nonzero;stroke:none;font-family:Open Sans;font-variant:normal;font-weight:normal;font-size:12;writing-mode:lr;-inkscape-font-specification:OpenSans"
           x="0 6.864"
           y="0"
           sodipodi:role="line"
           id="tspan204">30</tspan></text>
</g><g
       id="g206"><g
         id="g208"
         clip-path="url(#clipPath210)"><path
           d="m 432.53437,40.23125 0,345.6"
           style="fill:none;stroke:#000000;stroke-opacity:1;stroke-width:0.5;stroke-linecap:butt;stroke-linejoin:round;stroke-miterlimit:10;stroke-dasharray:1,3;stroke-dashoffset:0"
           id="path214" /></g></g><g
       id="g216"><path
         d="m 432.53437,40.23125 0,4"
         style="fill:#000000;fill-opacity:1;fill-rule:nonzero;stroke:#000000;stroke-opacity:1;stroke-width:0.5;stroke-linecap:butt;stroke-linejoin:round;stroke-miterlimit:10;stroke-dasharray:none"
         id="path218" /><path
         d="m 432.53437,385.83125 0,-4"
         style="fill:#000000;fill-opacity:1;fill-rule:nonzero;stroke:#000000;stroke-opacity:1;stroke-width:0.5;stroke-linecap:butt;stroke-linejoin:round;stroke-miterlimit:10;stroke-dasharray:none"
         id="path220" /><text
         transform="matrix(1,0,0,-1,425.675,27.10625)"
         id="text222"><tspan
           style="fill:#000000;fill-opacity:1;fill-rule:nonzero;stroke:none;font-family:Open Sans;font-variant:normal;font-weight:normal;font-size:12;writing-mode:lr;-inkscape-font-specification:OpenSans"
           x="0 6.864"
           y="0"
           sodipodi:role="line"
           id="tspan224">35</tspan></text>
</g><g
       id="g226"><g
         id="g228"
         clip-path="url(#clipPath230)"><path
           d="m 488.33437,40.23125 0,345.6"
           style="fill:none;stroke:#000000;stroke-opacity:1;stroke-width:0.5;stroke-linecap:butt;stroke-linejoin:round;stroke-miterlimit:10;stroke-dasharray:1,3;stroke-dashoffset:0"
           id="path234" /></g></g><g
       id="g236"><path
         d="m 488.33437,40.23125 0,4"
         style="fill:#000000;fill-opacity:1;fill-rule:nonzero;stroke:#000000;stroke-opacity:1;stroke-width:0.5;stroke-linecap:butt;stroke-linejoin:round;stroke-miterlimit:10;stroke-dasharray:none"
         id="path238" /><path
         d="m 488.33437,385.83125 0,-4"
         style="fill:#000000;fill-opacity:1;fill-rule:nonzero;stroke:#000000;stroke-opacity:1;stroke-width:0.5;stroke-linecap:butt;stroke-linejoin:round;stroke-miterlimit:10;stroke-dasharray:none"
         id="path240" /><text
         transform="matrix(1,0,0,-1,481.475,27.10625)"
         id="text242"><tspan
           style="fill:#000000;fill-opacity:1;fill-rule:nonzero;stroke:none;font-family:Open Sans;font-variant:normal;font-weight:normal;font-size:12;writing-mode:lr;-inkscape-font-specification:OpenSans"
           x="0 6.864"
           y="0"
           sodipodi:role="line"
           id="tspan244">40</tspan></text>
<text
         transform="matrix(1,0,0,-1,225.88437,10.090625)"
         id="text246"><tspan
           style="fill:#000000;fill-opacity:1;fill-rule:nonzero;stroke:none;font-family:Open Sans;font-variant:normal;font-weight:normal;font-size:12;writing-mode:lr;-inkscape-font-specification:OpenSans"
           x="0 6.192 11.088 17.82 25.176 32.544 39.276 46.644 52.356 58.404 61.524 65.076 74.952"
           y="0"
           sodipodi:role="line"
           id="tspan248">Frequency (%)</tspan></text>
</g><g
       id="g250"><g
         id="g252"
         clip-path="url(#clipPath254)"><path
           d="m 41.934375,40.23125 446.399995,0"
           style="fill:none;stroke:#000000;stroke-opacity:1;stroke-width:0.5;stroke-linecap:butt;stroke-linejoin:round;stroke-miterlimit:10;stroke-dasharray:1,3;stroke-dashoffset:0"
           id="path258" /></g></g><g
       id="g260"><path
         d="m 41.934375,40.23125 4,0"
         style="fill:#000000;fill-opacity:1;fill-rule:nonzero;stroke:#000000;stroke-opacity:1;stroke-width:0.5;stroke-linecap:butt;stroke-linejoin:round;stroke-miterlimit:10;stroke-dasharray:none"
         id="path262" /><path
         d="m 488.33437,40.23125 -4,0"
         style="fill:#000000;fill-opacity:1;fill-rule:nonzero;stroke:#000000;stroke-opacity:1;stroke-width:0.5;stroke-linecap:butt;stroke-linejoin:round;stroke-miterlimit:10;stroke-dasharray:none"
         id="path264" /><text
         transform="matrix(1,0,0,-1,31.075,37.114062)"
         id="text266"><tspan
           style="fill:#000000;fill-opacity:1;fill-rule:nonzero;stroke:none;font-family:Open Sans;font-variant:normal;font-weight:normal;font-size:12;writing-mode:lr;-inkscape-font-specification:OpenSans"
           x="0"
           y="0"
           id="tspan268">0</tspan></text>
</g><g
       id="g270"><g
         id="g272"
         clip-path="url(#clipPath274)"><path
           d="m 41.934375,86.31125 446.399995,0"
           style="fill:none;stroke:#000000;stroke-opacity:1;stroke-width:0.5;stroke-linecap:butt;stroke-linejoin:round;stroke-miterlimit:10;stroke-dasharray:1,3;stroke-dashoffset:0"
           id="path278" /></g></g><g
       id="g280"><path
         d="m 41.934375,86.31125 4,0"
         style="fill:#000000;fill-opacity:1;fill-rule:nonzero;stroke:#000000;stroke-opacity:1;stroke-width:0.5;stroke-linecap:butt;stroke-linejoin:round;stroke-miterlimit:10;stroke-dasharray:none"
         id="path282" /><path
         d="m 488.33437,86.31125 -4,0"
         style="fill:#000000;fill-opacity:1;fill-rule:nonzero;stroke:#000000;stroke-opacity:1;stroke-width:0.5;stroke-linecap:butt;stroke-linejoin:round;stroke-miterlimit:10;stroke-dasharray:none"
         id="path284" /><text
         transform="matrix(1,0,0,-1,31.075,83.194062)"
         id="text286"><tspan
           style="fill:#000000;fill-opacity:1;fill-rule:nonzero;stroke:none;font-family:Open Sans;font-variant:normal;font-weight:normal;font-size:12;writing-mode:lr;-inkscape-font-specification:OpenSans"
           x="0"
           y="0"
           id="tspan288">2</tspan></text>
</g><g
       id="g290"><g
         id="g292"
         clip-path="url(#clipPath294)"><path
           d="m 41.934375,132.39125 446.399995,0"
           style="fill:none;stroke:#000000;stroke-opacity:1;stroke-width:0.5;stroke-linecap:butt;stroke-linejoin:round;stroke-miterlimit:10;stroke-dasharray:1,3;stroke-dashoffset:0"
           id="path298" /></g></g><g
       id="g300"><path
         d="m 41.934375,132.39125 4,0"
         style="fill:#000000;fill-opacity:1;fill-rule:nonzero;stroke:#000000;stroke-opacity:1;stroke-width:0.5;stroke-linecap:butt;stroke-linejoin:round;stroke-miterlimit:10;stroke-dasharray:none"
         id="path302" /><path
         d="m 488.33437,132.39125 -4,0"
         style="fill:#000000;fill-opacity:1;fill-rule:nonzero;stroke:#000000;stroke-opacity:1;stroke-width:0.5;stroke-linecap:butt;stroke-linejoin:round;stroke-miterlimit:10;stroke-dasharray:none"
         id="path304" /><text
         transform="matrix(1,0,0,-1,31.075,129.27406)"
         id="text306"><tspan
           style="fill:#000000;fill-opacity:1;fill-rule:nonzero;stroke:none;font-family:Open Sans;font-variant:normal;font-weight:normal;font-size:12;writing-mode:lr;-inkscape-font-specification:OpenSans"
           x="0"
           y="0"
           id="tspan308">4</tspan></text>
</g><g
       id="g310"><g
         id="g312"
         clip-path="url(#clipPath314)"><path
           d="m 41.934375,178.47125 446.399995,0"
           style="fill:none;stroke:#000000;stroke-opacity:1;stroke-width:0.5;stroke-linecap:butt;stroke-linejoin:round;stroke-miterlimit:10;stroke-dasharray:1,3;stroke-dashoffset:0"
           id="path318" /></g></g><g
       id="g320"><path
         d="m 41.934375,178.47125 4,0"
         style="fill:#000000;fill-opacity:1;fill-rule:nonzero;stroke:#000000;stroke-opacity:1;stroke-width:0.5;stroke-linecap:butt;stroke-linejoin:round;stroke-miterlimit:10;stroke-dasharray:none"
         id="path322" /><path
         d="m 488.33437,178.47125 -4,0"
         style="fill:#000000;fill-opacity:1;fill-rule:nonzero;stroke:#000000;stroke-opacity:1;stroke-width:0.5;stroke-linecap:butt;stroke-linejoin:round;stroke-miterlimit:10;stroke-dasharray:none"
         id="path324" /><text
         transform="matrix(1,0,0,-1,31.075,175.35406)"
         id="text326"><tspan
           style="fill:#000000;fill-opacity:1;fill-rule:nonzero;stroke:none;font-family:Open Sans;font-variant:normal;font-weight:normal;font-size:12;writing-mode:lr;-inkscape-font-specification:OpenSans"
           x="0"
           y="0"
           id="tspan328">6</tspan></text>
</g><g
       id="g330"><g
         id="g332"
         clip-path="url(#clipPath334)"><path
           d="m 41.934375,224.55125 446.399995,0"
           style="fill:none;stroke:#000000;stroke-opacity:1;stroke-width:0.5;stroke-linecap:butt;stroke-linejoin:round;stroke-miterlimit:10;stroke-dasharray:1,3;stroke-dashoffset:0"
           id="path338" /></g></g><g
       id="g340"><path
         d="m 41.934375,224.55125 4,0"
         style="fill:#000000;fill-opacity:1;fill-rule:nonzero;stroke:#000000;stroke-opacity:1;stroke-width:0.5;stroke-linecap:butt;stroke-linejoin:round;stroke-miterlimit:10;stroke-dasharray:none"
         id="path342" /><path
         d="m 488.33437,224.55125 -4,0"
         style="fill:#000000;fill-opacity:1;fill-rule:nonzero;stroke:#000000;stroke-opacity:1;stroke-width:0.5;stroke-linecap:butt;stroke-linejoin:round;stroke-miterlimit:10;stroke-dasharray:none"
         id="path344" /><text
         transform="matrix(1,0,0,-1,31.075,221.43406)"
         id="text346"><tspan
           style="fill:#000000;fill-opacity:1;fill-rule:nonzero;stroke:none;font-family:Open Sans;font-variant:normal;font-weight:normal;font-size:12;writing-mode:lr;-inkscape-font-specification:OpenSans"
           x="0"
           y="0"
           id="tspan348">8</tspan></text>
</g><g
       id="g350"><g
         id="g352"
         clip-path="url(#clipPath354)"><path
           d="m 41.934375,270.63125 446.399995,0"
           style="fill:none;stroke:#000000;stroke-opacity:1;stroke-width:0.5;stroke-linecap:butt;stroke-linejoin:round;stroke-miterlimit:10;stroke-dasharray:1,3;stroke-dashoffset:0"
           id="path358" /></g></g><g
       id="g360"><path
         d="m 41.934375,270.63125 4,0"
         style="fill:#000000;fill-opacity:1;fill-rule:nonzero;stroke:#000000;stroke-opacity:1;stroke-width:0.5;stroke-linecap:butt;stroke-linejoin:round;stroke-miterlimit:10;stroke-dasharray:none"
         id="path362" /><path
         d="m 488.33437,270.63125 -4,0"
         style="fill:#000000;fill-opacity:1;fill-rule:nonzero;stroke:#000000;stroke-opacity:1;stroke-width:0.5;stroke-linecap:butt;stroke-linejoin:round;stroke-miterlimit:10;stroke-dasharray:none"
         id="path364" /><text
         transform="matrix(1,0,0,-1,24.215625,267.51406)"
         id="text366"><tspan
           style="fill:#000000;fill-opacity:1;fill-rule:nonzero;stroke:none;font-family:Open Sans;font-variant:normal;font-weight:normal;font-size:12;writing-mode:lr;-inkscape-font-specification:OpenSans"
           x="0 6.864"
           y="0"
           sodipodi:role="line"
           id="tspan368">10</tspan></text>
</g><g
       id="g370"><g
         id="g372"
         clip-path="url(#clipPath374)"><path
           d="m 41.934375,316.71125 446.399995,0"
           style="fill:none;stroke:#000000;stroke-opacity:1;stroke-width:0.5;stroke-linecap:butt;stroke-linejoin:round;stroke-miterlimit:10;stroke-dasharray:1,3;stroke-dashoffset:0"
           id="path378" /></g></g><g
       id="g380"><path
         d="m 41.934375,316.71125 4,0"
         style="fill:#000000;fill-opacity:1;fill-rule:nonzero;stroke:#000000;stroke-opacity:1;stroke-width:0.5;stroke-linecap:butt;stroke-linejoin:round;stroke-miterlimit:10;stroke-dasharray:none"
         id="path382" /><path
         d="m 488.33437,316.71125 -4,0"
         style="fill:#000000;fill-opacity:1;fill-rule:nonzero;stroke:#000000;stroke-opacity:1;stroke-width:0.5;stroke-linecap:butt;stroke-linejoin:round;stroke-miterlimit:10;stroke-dasharray:none"
         id="path384" /><text
         transform="matrix(1,0,0,-1,24.215625,313.59406)"
         id="text386"><tspan
           style="fill:#000000;fill-opacity:1;fill-rule:nonzero;stroke:none;font-family:Open Sans;font-variant:normal;font-weight:normal;font-size:12;writing-mode:lr;-inkscape-font-specification:OpenSans"
           x="0 6.864"
           y="0"
           sodipodi:role="line"
           id="tspan388">12</tspan></text>
</g><g
       id="g390"><g
         id="g392"
         clip-path="url(#clipPath394)"><path
           d="m 41.934375,362.79125 446.399995,0"
           style="fill:none;stroke:#000000;stroke-opacity:1;stroke-width:0.5;stroke-linecap:butt;stroke-linejoin:round;stroke-miterlimit:10;stroke-dasharray:1,3;stroke-dashoffset:0"
           id="path398" /></g></g><path
       inkscape:connector-curvature="0"
       id="path402"
       style="fill:#000000;fill-opacity:1;fill-rule:nonzero;stroke:#000000;stroke-width:0.5;stroke-linecap:butt;stroke-linejoin:round;stroke-miterlimit:10;stroke-opacity:1;stroke-dasharray:none"
       d="m 41.934375,362.79125 4,0" /><path
       inkscape:connector-curvature="0"
       id="path404"
       style="fill:#000000;fill-opacity:1;fill-rule:nonzero;stroke:#000000;stroke-width:0.5;stroke-linecap:butt;stroke-linejoin:round;stroke-miterlimit:10;stroke-opacity:1;stroke-dasharray:none"
       d="m 488.33437,362.79125 -4,0" /><text
       id="text406"
       transform="scale(1,-1)"
       x="24.215626"
       y="-359.67407"><tspan
         id="tspan408"
         sodipodi:role="line"
         y="-359.67407"
         x="24.215626 31.079624"
         style="font-size:12px;font-variant:normal;font-weight:normal;writing-mode:lr-tb;fill:#000000;fill-opacity:1;fill-rule:nonzero;stroke:none;font-family:Open Sans;-inkscape-font-specification:OpenSans">14</tspan></text>
<text
       id="text410"
       transform="matrix(0,1,1,0,0,0)"
       x="180.79688"
       y="16.325001"><tspan
         id="tspan412"
         sodipodi:role="line"
         y="16.325001"
         x="180.79688 189.65286 196.38487 199.42087 205.99687 213.36487 217.60088 220.72087 224.27287 230.57288 241.73286"
         style="font-size:12px;font-variant:normal;font-weight:normal;writing-mode:lr-tb;fill:#000000;fill-opacity:1;fill-rule:nonzero;stroke:none;font-family:Open Sans;-inkscape-font-specification:OpenSans">Height (km)</tspan></text>
<path
       inkscape:connector-curvature="0"
       id="path414"
       style="fill:#ffffff;fill-opacity:1;fill-rule:nonzero;stroke:#000000;stroke-width:0.80000001;stroke-linecap:butt;stroke-linejoin:miter;stroke-miterlimit:10;stroke-opacity:1;stroke-dasharray:none"
       d="m 305.11875,299.36875 183.21562,0 0,86.4625 -183.21562,0 0,-86.4625 z" /><path
       inkscape:connector-curvature="0"
       id="path416"
       style="fill:none;stroke:#257ee3;stroke-width:1.70000005;stroke-linecap:square;stroke-linejoin:round;stroke-miterlimit:10;stroke-opacity:1;stroke-dasharray:none"
       d="m 313.51875,376.10625 16.8,0" /><text
       id="text418"
       transform="scale(1,-1)"
       x="343.51874"
       y="-371.90625"><tspan
         id="tspan420"
         sodipodi:role="line"
         y="-371.90625"
         x="343.51874 350.93475 357.52274 360.64276 364.19476 371.05875 378.83475 382.69876 391.43475 398.10675 407.45474 414.67874 422.09476 431.44275 437.63474 441.49875 447.72675 451.07474 459.82275 467.41876 474.83475"
         style="font-size:12px;font-variant:normal;font-weight:normal;writing-mode:lr-tb;fill:#000000;fill-opacity:1;fill-rule:nonzero;stroke:none;font-family:Open Sans;-inkscape-font-specification:OpenSans">RS (2B-GEOPROF-LIDAR)</tspan></text>
<path
       inkscape:connector-curvature="0"
       id="path422"
       style="fill:none;stroke:#17c7ff;stroke-width:1.70000005;stroke-linecap:square;stroke-linejoin:round;stroke-miterlimit:10;stroke-opacity:1;stroke-dasharray:none"
       d="m 313.51875,354.49062 16.8,0" /><text
       id="text424"
       transform="scale(1,-1)"
       x="343.51874"
       y="-350.29062"><tspan
         id="tspan426"
         sodipodi:role="line"
         y="-350.29062"
         x="343.51874 350.93475 357.52274 360.64276 364.19476 371.05875 378.83475 382.69876 390.27075 396.49875 405.24677 412.81876 419.04675 426.64276 433.23074 439.81876 443.68274 449.91074 453.25876 462.00674 469.60275 477.01874"
         style="font-size:12px;font-variant:normal;font-weight:normal;writing-mode:lr-tb;fill:#000000;fill-opacity:1;fill-rule:nonzero;stroke:none;font-family:Open Sans;-inkscape-font-specification:OpenSans">RS (2B-CLDCLASS-LIDAR)</tspan></text>
<path
       inkscape:connector-curvature="0"
       id="path428"
       style="fill:none;stroke:#db244d;stroke-width:1.70000005;stroke-linecap:square;stroke-linejoin:round;stroke-miterlimit:10;stroke-opacity:1;stroke-dasharray:none"
       d="m 313.51875,332.875 16.8,0" /><text
       id="text430"
       transform="scale(1,-1)"
       x="343.51874"
       y="-328.67499"><tspan
         id="tspan432"
         sodipodi:role="line"
         y="-328.67499"
         x="343.51874 350.93475 354.28275 360.87076 363.99075 367.54276 374.40674 382.18274 386.04675 394.78275 401.45474 410.80273 418.02676 425.44275 434.79074 440.98276 444.84674 451.07474 454.42276 463.17075 470.76675 478.18274"
         style="font-size:12px;font-variant:normal;font-weight:normal;writing-mode:lr-tb;fill:#000000;fill-opacity:1;fill-rule:nonzero;stroke:none;font-family:Open Sans;-inkscape-font-specification:OpenSans">RIS (2B-GEOPROF-LIDAR)</tspan></text>
<path
       inkscape:connector-curvature="0"
       id="path434"
       style="fill:none;stroke:#ff8616;stroke-width:1.70000005;stroke-linecap:square;stroke-linejoin:round;stroke-miterlimit:10;stroke-opacity:1;stroke-dasharray:none"
       d="m 313.51875,311.25937 16.8,0" /><text
       id="text436"
       transform="scale(1,-1)"
       x="343.51874"
       y="-307.05936"><tspan
         id="tspan438"
         sodipodi:role="line"
         y="-307.05936"
         x="343.51874 350.93475 354.28275 360.87076 363.99075 367.54276 374.40674 381.76276 385.62674 393.19876 399.42676 408.17474 415.74673 421.97476 429.57074 436.15875 442.74673 446.61075 452.83875 456.18674 464.93475 472.53073 479.94675"
         style="font-size:12px;font-variant:normal;font-weight:normal;writing-mode:lr-tb;fill:#000000;fill-opacity:1;fill-rule:nonzero;stroke:none;font-family:Open Sans;-inkscape-font-specification:OpenSans">RIS (2b-CLDCLASS-LIDAR)</tspan></text>
<path
       style="fill:none;stroke:#000000;stroke-width:2.40000010000000019;stroke-linecap:butt;stroke-linejoin:miter;stroke-miterlimit:4;stroke-opacity:1;stroke-dasharray:none;marker-start:url(#TriangleInM);marker-end:url(#TriangleOutM);opacity:0.65400844"
       d="m 110.74822,216.50027 21.65002,-52.45968 34.14042,46.63082"
       id="path3434"
       inkscape:connector-curvature="0"
       sodipodi:nodetypes="ccc" /></g></svg>